<svg xmlns:xlink="http://www.w3.org/1999/xlink" xmlns="http://www.w3.org/2000/svg" version="1.1" viewBox="0 0 1024 1024" height="1024px" width="1024px">
    <title>加载中</title>
    <defs>
        <linearGradient id="linearGradient-1" y2="44.0501254%" x2="50%" y1="-29.88559%" x1="50%">
            <stop offset="0%" stop-color="#CFDFFA"></stop>
            <stop offset="100%" stop-opacity="0" stop-color="#EAF0FC"></stop>
        </linearGradient>
        <linearGradient id="linearGradient-2" y2="69.8229089%" x2="53.6226986%" y1="33.7484636%" x1="50%">
            <stop offset="0%" stop-color="#CFDFFA"></stop>
            <stop offset="100%" stop-opacity="0" stop-color="#EAF0FC"></stop>
        </linearGradient>
        <linearGradient id="linearGradient-3" y2="66.4977364%" x2="53.6226986%" y1="36.47456%" x1="50%">
            <stop offset="0%" stop-color="#CFDFFA"></stop>
            <stop offset="100%" stop-opacity="0" stop-color="#EAF0FC"></stop>
        </linearGradient>
        <linearGradient id="linearGradient-4" y2="100%" x2="57.28025%" y1="11.4973736%" x1="50%">
            <stop offset="0%" stop-color="#BFD4FA"></stop>
            <stop offset="100%" stop-color="#5792F0"></stop>
        </linearGradient>
        <linearGradient id="linearGradient-5" y2="131.881015%" x2="51.9400923%" y1="11.4973736%" x1="50%">
            <stop offset="0%" stop-color="#BFD4FA"></stop>
            <stop offset="100%" stop-color="#5792F0"></stop>
        </linearGradient>
        <linearGradient id="linearGradient-6" y2="128.49897%" x2="74.2827921%" y1="13.0877007%" x1="50%">
            <stop offset="0%" stop-color="#BFD4FA"></stop>
            <stop offset="100%" stop-color="#5792F0"></stop>
        </linearGradient>
        <linearGradient id="linearGradient-7" y2="131.881015%" x2="54.0733641%" y1="11.4973736%" x1="50%">
            <stop offset="0%" stop-color="#BFD4FA"></stop>
            <stop offset="100%" stop-color="#5792F0"></stop>
        </linearGradient>
        <linearGradient id="linearGradient-8" y2="131.881015%" x2="51.9795749%" y1="11.4973736%" x1="50%">
            <stop offset="0%" stop-color="#BFD4FA"></stop>
            <stop offset="100%" stop-color="#5792F0"></stop>
        </linearGradient>
        <linearGradient id="linearGradient-9" y2="131.881015%" x2="55.3643684%" y1="11.4973736%" x1="50%">
            <stop offset="0%" stop-color="#BFD4FA"></stop>
            <stop offset="100%" stop-color="#5792F0"></stop>
        </linearGradient>
        <linearGradient id="linearGradient-10" y2="53.7022797%" x2="74.2827921%" y1="48.2590898%" x1="50%">
            <stop offset="0%" stop-color="#BFD4FA"></stop>
            <stop offset="100%" stop-color="#5792F0"></stop>
        </linearGradient>
        <linearGradient id="linearGradient-11" y2="25.2299206%" x2="50%" y1="157.929896%" x1="24.2777805%">
            <stop offset="0%" stop-color="#5792F0"></stop>
            <stop offset="100%" stop-color="#BFD4FA"></stop>
        </linearGradient>
        <linearGradient id="linearGradient-12" y2="20.0076843%" x2="45.5914172%" y1="133.594066%" x1="75.4431453%">
            <stop offset="0%" stop-color="#5792F0"></stop>
            <stop offset="100%" stop-color="#BFD4FA"></stop>
        </linearGradient>
        <linearGradient id="linearGradient-13" y2="27.95903%" x2="50%" y1="141.435864%" x1="50%">
            <stop offset="0%" stop-color="#5792F0"></stop>
            <stop offset="100%" stop-color="#BFD4FA"></stop>
        </linearGradient>
        <linearGradient id="linearGradient-14" y2="0%" x2="107.957027%" y1="100%" x1="1.29105115%">
            <stop offset="0%" stop-color="#5792F0"></stop>
            <stop offset="100%" stop-color="#BFD4FA"></stop>
        </linearGradient>
        <linearGradient id="linearGradient-15" y2="-19.5245044%" x2="29.6286316%" y1="148.283787%" x1="100%">
            <stop offset="0%" stop-color="#5792F0"></stop>
            <stop offset="100%" stop-color="#BFD4FA"></stop>
        </linearGradient>
        <linearGradient id="linearGradient-16" y2="-13.7156282%" x2="65.5650654%" y1="120.72653%" x1="65.5650654%">
            <stop offset="0%" stop-color="#5792F0"></stop>
            <stop offset="100%" stop-color="#BFD4FA"></stop>
        </linearGradient>
        <linearGradient id="linearGradient-17" y2="-11.5290622%" x2="49.4028836%" y1="133.594066%" x1="50.6017095%">
            <stop offset="0%" stop-color="#5792F0"></stop>
            <stop offset="100%" stop-color="#BFD4FA"></stop>
        </linearGradient>
        <linearGradient id="linearGradient-18" y2="4.79497474%" x2="-17.9385803%" y1="111.416048%" x1="118.461169%">
            <stop offset="0%" stop-color="#5792F0"></stop>
            <stop offset="100%" stop-color="#BFD4FA"></stop>
        </linearGradient>
        <linearGradient id="linearGradient-19" y2="85.4057373%" x2="-15.3596982%" y1="85.4057373%" x1="151.794562%">
            <stop offset="0%" stop-color="#EAF0FC"></stop>
            <stop offset="100%" stop-color="#CFDFFA"></stop>
        </linearGradient>
        <linearGradient id="linearGradient-20" y2="85.4057373%" x2="-15.3596982%" y1="85.4057373%" x1="151.794562%">
            <stop offset="0%" stop-color="#EAF0FC"></stop>
            <stop offset="100%" stop-color="#CFDFFA"></stop>
        </linearGradient>
        <linearGradient id="linearGradient-21" y2="206.776104%" x2="50%" y1="0%" x1="50%">
            <stop offset="0%" stop-color="#FFCDA5"></stop>
            <stop offset="100%" stop-color="#FFE8D1"></stop>
        </linearGradient>
        <linearGradient id="linearGradient-22" y2="88.9526623%" x2="55.2646375%" y1="0%" x1="50%">
            <stop offset="0%" stop-color="#FFF2DF"></stop>
            <stop offset="100%" stop-color="#FEE0BC"></stop>
        </linearGradient>
        <linearGradient id="linearGradient-23" y2="59.4908587%" x2="100%" y1="34.6227424%" x1="14.3474826%">
            <stop offset="0%" stop-color="#BFD4FA"></stop>
            <stop offset="100%" stop-color="#5792F0"></stop>
        </linearGradient>
        <linearGradient id="linearGradient-24" y2="62.0122195%" x2="100%" y1="30.5375889%" x1="14.3474826%">
            <stop offset="0%" stop-color="#BFD4FA"></stop>
            <stop offset="100%" stop-color="#5792F0"></stop>
        </linearGradient>
        <linearGradient id="linearGradient-25" y2="100%" x2="61.8017126%" y1="-31.010887%" x1="41.5847847%">
            <stop offset="0%" stop-color="#BFD4FA"></stop>
            <stop offset="100%" stop-color="#5792F0"></stop>
        </linearGradient>
        <linearGradient id="linearGradient-26" y2="100%" x2="50%" y1="0%" x1="50%">
            <stop offset="0%" stop-color="#FEE127"></stop>
            <stop offset="100%" stop-color="#F9AB21"></stop>
        </linearGradient>
    </defs>
    <g fill-rule="evenodd" fill="none" stroke-width="1" stroke="none" id="加载中">
        <rect height="1024" width="1024" y="0" x="0" id="矩形"></rect>
        <g transform="translate(32.000000, 149.000000)" id="编组-2">
            <g id="背景">
                <ellipse ry="250" rx="480" cy="766" cx="480" fill="url(#linearGradient-1)" id="椭圆形"></ellipse>
                <path fill="url(#linearGradient-2)" id="云" d="M814,116.212121 C814,130.606061 800.181818,142.121212 782.727273,142.121212 L686,142.121212 C668.545455,140.969697 654,130.030303 654,115.060606 C654,105.272727 660.545455,96.6363636 670,92.030303 C669.272727,90.3030303 668.545455,88.5757576 668.545455,86.8484848 C668.545455,77.0606061 678,68.4242424 690.363636,68.4242424 C695.454545,68.4242424 699.818182,70.1515152 703.454545,72.4545455 C712.181818,59.2121212 728.181818,50 747.090909,50 C773.272727,50 794.363636,67.8484848 794.363636,89.7272727 L794.363636,92.030303 C806,96.0606061 814,105.272727 814,116.212121 Z"></path>
                <path fill="url(#linearGradient-3)" id="云" d="M166.222222,0 C190.894883,0 211.8847,15.7681262 219.664106,37.7768098 L256.5,37.7777778 C266.164983,37.7777778 274,45.6127947 274,55.2777778 L274,98.0555556 C274,107.720539 266.164983,115.555556 256.5,115.555556 L78.1666667,115.555556 C68.5016835,115.555556 60.6666667,107.720539 60.6666667,98.0555556 L60.6669111,85.6467185 C56.4406838,78.8453656 54,70.81882 54,62.2222222 C54,37.6762333 73.8984556,17.7777778 98.4444444,17.7777778 C106.377692,17.7777778 113.825468,19.8563268 120.272891,23.4985432 C130.565544,9.26259942 147.312185,0 166.222222,0 Z"></path>
                <g transform="translate(170.000000, 570.000000)" id="草">
                    <ellipse ry="4" rx="12.8" cy="78" cx="26.8" fill="#CCDCF6" id="椭圆形"></ellipse>
                    <path fill-rule="nonzero" fill="url(#linearGradient-4)" id="路径-42" d="M13.2096985,76.4334696 C14.9527214,47.3262499 22.2548023,30.479152 35.1159413,25.892176 C40.1793835,25.2161532 45.8226773,24.1997042 41.8878028,30.7617951 C37.9529282,37.3238861 27.4160559,34.7701422 16.879533,76.4161198 C15.9265298,78.1966928 14.7032516,78.202476 13.2096985,76.4334696 Z"></path>
                    <path fill-rule="nonzero" fill="url(#linearGradient-5)" id="路径-41" d="M12.9692534,76.0688036 C9.54744327,48.8820916 6.74680699,31.7849012 4.56734456,24.7772324 C1.2981509,14.2657291 -5.66257226,-5.963969 8.82439601,1.68943966 C23.3113643,9.34284832 25.0241679,48.6011298 18.327685,72.4929976 C16.2462776,78.5387167 14.4601337,79.730652 12.9692534,76.0688036 Z"></path>
                </g>
                <g fill-rule="nonzero" transform="translate(686.120225, 515.426704)" id="草">
                    <path fill="url(#linearGradient-6)" id="路径-43" d="M65.8576891,95.4430222 C63.3395468,83.9806553 55.9856639,75.9680543 43.7960405,71.4052192 C29.8759357,66.9305791 22.2494886,61.6117041 30.9599814,57.7550267 C38.3155159,57.1703291 54.0022982,51.4419217 65.8576891,85.6583003 C66.6827635,88.9740418 66.6827635,92.2356158 65.8576891,95.4430222 Z"></path>
                    <path fill="url(#linearGradient-7)" id="路径-44" d="M66.4764949,97.2611071 C59.1454779,69.8960192 50.8174439,49.9170768 41.4923928,37.3242799 C34.6452589,28.7188412 35.1250476,16.405104 41.4923928,13.6218727 C48.0100381,12.8970718 60.0222617,11.7760378 69.0669112,58.9373338 C69.6381527,62.1812743 72.8251647,81.1589956 69.0669112,93.4066801 C68.5106318,95.0875751 67.6471596,96.3723841 66.4764949,97.2611071 Z"></path>
                    <path fill="url(#linearGradient-8)" id="路径-45" d="M68.1696321,91.0804085 C71.4853494,78.835463 71.0643832,62.8586309 66.9067333,43.1499123 C60.5471905,24.0440706 49.6921744,0.541796566 69.4774519,0 C77.5044316,1.09154868 87.1972186,9.50543486 83.5347739,51.4392686 C81.3029234,68.3604083 77.4213217,78.3565362 73.3477064,91.0804085 C71.9266832,91.8737887 70.2006584,91.8737887 68.1696321,91.0804085 Z"></path>
                    <path fill="url(#linearGradient-9)" id="路径-46" d="M72.0427224,95.836031 C70.7154818,61.2121058 77.0522244,36.363996 91.0529503,21.2917016 C94.833726,16.2551414 109.217459,11.5380494 109.163159,27.3263959 C107.661554,34.1152854 104.448437,48.6087163 85.9202741,70.7214245 C79.8162941,78.7025415 75.8046094,90.365172 75.7655073,93.0996265 C75.7394392,94.9225962 74.4985109,95.834731 72.0427224,95.836031 Z"></path>
                    <path fill="url(#linearGradient-10)" id="路径-47" d="M0,100.407711 C13.8643816,97.8236334 21.5103995,95.6299697 22.9380537,93.8267198 C25.0795349,91.1218449 43.9450099,79.5080271 55.7094426,89.2905093 C58.2703723,85.9992821 66.4835238,83.4391237 71.1837342,89.2905093 C73.3341085,80.0524096 86.7490663,74.1360276 92.583369,75.0945046 C99.1537088,74.5803177 118.55034,74.7942504 120,100.407711 C114.707841,100.530921 74.7078414,100.530921 0,100.407711 Z"></path>
                </g>
            </g>
            <g fill-rule="nonzero" transform="translate(334.607112, 18.000000)" id="火箭">
                <path fill="url(#linearGradient-11)" id="路径-2" d="M53.9718812,160.892704 C15.0741139,184.465116 -2.79831203,209.440375 0.354603354,235.81848 C3.50751874,262.196586 8.17309975,287.43761 14.3513464,311.541553 C23.3421469,322.998885 33.7591564,324.33736 45.6023751,315.556977 C57.4455938,306.776595 73.295227,293.386149 93.1512749,275.385638 L53.9718812,160.892704 Z"></path>
                <path transform="translate(233.424363, 241.081949) scale(-1, 1) translate(-233.424363, -241.081949)" fill="url(#linearGradient-11)" id="路径-2备份" d="M240.820606,160.892704 C201.922839,184.465116 184.050413,209.440375 187.203328,235.81848 C190.356244,262.196586 195.021825,287.43761 201.200072,311.541553 C210.190872,322.998885 220.607882,324.33736 232.4511,315.556977 C244.294319,306.776595 260.143952,293.386149 280,275.385638 L240.820606,160.892704 Z"></path>
                <path fill="url(#linearGradient-12)" id="路径" d="M189.711306,291.172597 C282.348353,151.747956 177.283923,33.0485989 146.68907,3.08848853 C142.530822,-0.989341664 135.085759,-1.03356976 130.842262,2.98234111 C99.7738045,32.4559424 -6.61671858,149.324256 87.7537213,291.172597 L189.711306,291.172597 Z"></path>
                <path fill="url(#linearGradient-13)" id="路径" d="M146.297628,3.10925462 C142.336235,-0.969980334 135.240254,-1.05049155 131.178918,2.95717788 C120.166973,13.8083007 99.2878882,36.6198119 82.052195,68.5111992 L194.16143,68.5111992 C177.116538,37.0044766 156.946143,14.0945628 146.297628,3.10925462 Z"></path>
                <path fill="#BFD4FA" id="路径" d="M189.799882,291.172597 C193.044111,286.478744 196.061339,281.801867 198.832648,277.158942 L78.9380496,277.158942 C81.7282757,281.801867 84.5000339,286.470256 87.7537213,291.172597 L189.799882,291.172597 Z"></path>
                <path transform="translate(138.313021, 343.523437) rotate(-45.000000) translate(-138.313021, -343.523437)" fill="url(#linearGradient-14)" id="路径" d="M159.411045,398.488878 C156.742622,400.155795 154.827012,402.102568 152.083283,402.102568 C151.01256,402.102568 149.874917,401.901808 148.670354,401.433366 C144.287081,399.827282 142.179095,396.581652 141.978334,392.031079 C141.844494,389.15351 141.911414,386.275942 141.844494,383.398374 C141.744113,379.985443 141.710653,378.74742 140.372249,378.74742 C139.636127,378.74742 138.531944,379.115481 136.825479,379.684303 C126.419389,383.130693 116.046758,386.610543 105.640668,390.056933 C104.068044,390.592295 102.461959,390.960356 100.922794,390.960356 C99.4505501,390.960356 97.9783058,390.625754 96.5060615,389.822712 C92.0558686,387.313205 90.3828637,382.863012 92.156249,377.409016 C95.6026392,366.735245 99.2497897,356.094934 102.7631,345.421163 C104.302264,340.80367 104.201884,340.703289 99.2163293,340.602909 C96.2049205,340.569449 93.1935118,340.602909 90.182103,340.469068 C85.7988303,340.268308 82.6870412,338.126862 81.0474964,333.97781 C79.4748718,329.929138 81.5740664,327.194481 83.4231634,323.437879 C92.8928197,304.199444 116.653825,289.422033 119.106088,287.754954 C121.140781,286.371744 122.920539,284.944306 125.162366,284.944306 C125.396587,284.944306 125.630807,284.944306 125.831568,284.977766 C131.084803,285.044686 133.995831,287.386893 135.903057,292.740509 C143.297739,313.82037 156.748698,329.780837 176.255935,340.621908 C180.572287,342.997575 185.089401,344.93826 189.773814,346.544346 C198.239219,349.421914 196.733515,361.099488 193.889406,363.943596 C186.754684,376.480308 182.721751,383.92708 159.411045,398.488878 Z"></path>
                <polygon points="87.7537213 291.172597 189.490212 291.172597 189.490212 305.186251 87.7537213 305.186251" fill="#5792F0" id="矩形"></polygon>
                <circle r="46.7121813" cy="140.136544" cx="138.314971" fill="#FFFFFF" id="椭圆形"></circle>
                <circle r="31.1414542" cy="140.136544" cx="138.314971" fill="url(#linearGradient-15)" id="椭圆形"></circle>
                <path fill="url(#linearGradient-16)" id="路径" d="M137.398113,233.560906 C137.398113,233.560906 97.1048852,265.961743 137.169024,350.34136 C177.682529,266.860954 137.398113,233.560906 137.398113,233.560906 Z"></path>
            </g>
            <g fill-rule="nonzero" transform="translate(256.000000, 396.000000)" id="编组">
                <rect height="128" width="12" y="76" x="50" fill="url(#linearGradient-17)" id="矩形"></rect>
                <path fill="url(#linearGradient-18)" id="三角形" d="M57.7275578,2.96152766 L110.245484,92.9922579 C110.802044,93.9463618 110.479772,95.1709972 109.525668,95.7275578 C109.219796,95.9059832 108.872035,96 108.517926,96 L3.482074,96 C2.3775045,96 1.482074,95.1045695 1.482074,94 C1.482074,93.6458907 1.57609079,93.2981301 1.7545162,92.9922579 L54.2724422,2.96152766 C54.8290028,2.00742383 56.0536382,1.68515134 57.0077421,2.24171191 C57.3057493,2.41554948 57.5537202,2.66352039 57.7275578,2.96152766 Z"></path>
                <path transform="translate(57.000000, 57.000000) scale(-1, 1) translate(-57.000000, -57.000000)" fill="#FFFFFF" id="形状" d="M54,64.5 C54.5,66 55.5,67 57,67 C58.5,67 59.5,66 60,64.5 L62,37 C62,34 59.5,32 57,32 C54,32 52,34.5 52,37.5 L54,64.5 Z M57,72 C54,72 52,74 52,77 C52,80 54,82 57,82 C60,82 62,80 62,77 C62,74 60,72 57,72 Z"></path>
            </g>
            <g transform="translate(398.089293, 645.458109) rotate(118.000000) translate(-398.089293, -645.458109) translate(353.089293, 543.927423)" opacity="0.2" id="编组备份">
                <path fill="url(#linearGradient-19)" id="三角形" d="M46.8109179,3.86329146 L88.6645932,93.1511322 C89.13341,94.1512746 88.7026854,95.3421012 87.7025431,95.8109179 C87.4368817,95.9354467 87.1470751,96 86.8536754,96 L3.14632463,96 C2.04175513,96 1.14632463,95.1045695 1.14632463,94 C1.14632463,93.7066002 1.21087796,93.4167937 1.33540676,93.1511322 L43.1890821,3.86329146 C43.6578988,2.86314914 44.8487254,2.43242463 45.8488678,2.90124134 C46.2721249,3.09964311 46.6125161,3.44003436 46.8109179,3.86329146 Z"></path>
                <rect height="128" width="10" y="75.0613702" x="38.043766" fill="url(#linearGradient-20)" id="矩形"></rect>
                <path transform="translate(44.309949, 55.584447) scale(-1, 1) translate(-44.309949, -55.584447)" fill-rule="nonzero" fill="#FFFFFF" id="形状" d="M41.9099494,63.0844466 C42.3099494,64.5844466 43.1099494,65.5844466 44.3099494,65.5844466 C45.5099494,65.5844466 46.3099494,64.5844466 46.7099494,63.0844466 L48.3099494,35.5844466 C48.3099494,32.5844466 46.3099494,30.5844466 44.3099494,30.5844466 C41.9099494,30.5844466 40.3099494,33.0844466 40.3099494,36.0844466 L41.9099494,63.0844466 Z M44.3099494,70.5844466 C41.9099494,70.5844466 40.3099494,72.5844466 40.3099494,75.5844466 C40.3099494,78.5844466 41.9099494,80.5844466 44.3099494,80.5844466 C46.7099494,80.5844466 48.3099494,78.5844466 48.3099494,75.5844466 C48.3099494,72.5844466 46.7099494,70.5844466 44.3099494,70.5844466 Z"></path>
            </g>
            <g transform="translate(614.000000, 520.852281) scale(-1, 1) translate(-614.000000, -520.852281) translate(564.000000, 397.704562)" id="人物">
                <ellipse ry="16" rx="50" cy="230.295438" cx="50" fill="#CCDCF6" id="椭圆形"></ellipse>
                <g transform="translate(2.000000, 0.000000)" id="头">
                    <rect height="10.438128" width="13.04766" y="34.3093927" x="26.2026953" fill="url(#linearGradient-21)" id="矩形"></rect>
                    <ellipse ry="18.2667239" rx="13.04766" cy="21.7293191" cx="29.2727517" transform="translate(29.272752, 21.729319) rotate(-21.000000) translate(-29.272752, -21.729319)" fill="url(#linearGradient-22)" id="椭圆形"></ellipse>
                    <path transform="translate(22.604169, 21.322986) scale(-1, 1) translate(-22.604169, -21.322986)" fill="#483029" id="路径-59" d="M8.5483265,6.7646305 C5.06916305,12.7546547 6.99610878,17.8607654 14.3291637,22.0829625 C20.6743427,19.5521771 20.602718,28.6261135 13.580975,32.629124 C14.5315971,36.2704291 14.5109963,40.7283353 22.0627256,41.0499601 C28.8386085,39.8639528 41.7920797,37.108657 37.4782914,14.5355515 C34.9450261,4.98198421 27.7024359,1.90191985 21.9264535,1.60058653 C15.3774521,1.49502155 10.9180764,3.21636954 8.5483265,6.7646305 Z"></path>
                    <circle r="7.82859597" cy="8.2140728" cx="7.82859597" fill="#483029" id="椭圆形"></circle>
                </g>
                <path fill-rule="nonzero" fill="url(#linearGradient-23)" id="脚-path" d="M22.0871441,217.06564 L22.0871441,225.74199 C23.1729505,226.214309 24.3212498,226.52742 25.4965206,226.671639 C27.2287266,226.888094 29.5249067,226.981428 29.5249067,226.981428 C29.5249067,226.981428 33.2696038,226.25263 36.9632368,225.122413 C40.8585727,223.930918 44.7113553,222.333465 44.7113553,222.333465 C44.7113553,222.333465 45.3692305,219.657424 43.7817059,218.924939 C41.4767314,217.861672 36.6531645,218.615151 36.6531645,218.615151 C36.6531645,218.615151 34.8823767,218.703661 33.5538603,218.615151 C32.9868246,218.568841 32.4468768,218.352842 32.0043501,217.995289 C30.2529227,218.178875 28.4871022,218.178875 26.7356748,217.995289 C25.1675207,217.787283 23.6146833,217.476734 22.0871441,217.06564 L22.0871441,217.06564 Z"></path>
                <path fill-rule="nonzero" fill="url(#linearGradient-24)" id="脚-path" d="M65.7871909,230.700025 L65.7871909,239.376091 C66.8728802,239.848627 68.0210764,240.162024 69.1962836,240.306592 C70.9287734,240.522195 73.2246698,240.615813 73.2246698,240.615813 C73.2246698,240.615813 76.9693669,239.886732 80.6627161,238.757649 C84.5583358,237.563317 88.4111185,235.967849 88.4111185,235.967849 C88.4111185,235.967849 89.0687096,233.29181 87.4811854,232.559324 C85.1776293,231.495774 80.3549134,232.249252 80.3549134,232.249252 C80.3549134,232.249252 78.5841256,232.337763 77.2556092,232.249252 C76.33674,232.187975 75.3960267,229.460587 75.3960267,229.460587 C75.3960267,229.460587 73.4167274,230.090094 70.4371401,230.700025 C68.9001949,230.984339 67.3241361,230.984339 65.7871909,230.700025 Z"></path>
                <path fill-rule="nonzero" fill="url(#linearGradient-25)" id="腿" d="M56.6602852,113.953392 C56.6602852,113.953392 68.4295172,157.798014 68.8864951,160.050075 C69.5948812,163.635103 70.112115,167.255265 70.4360053,170.895228 L75.7038294,229.771794 C74.4502563,230.495571 67.755192,231.739653 65.7869072,231.631093 C65.7869072,231.631093 63.3729884,222.229198 58.5451508,203.425409 C57.0945442,197.878378 52.7686777,173.130608 52.7695731,173.079245 C52.7698298,173.065167 41.148718,136.912236 39.9765098,135.024054 C39.8123704,135.963758 41.209602,172.373383 38.7618972,183.836144 C34.4632024,207.022148 32.313855,218.615151 32.313855,218.615151 C30.5620721,218.791803 23.4878889,217.960448 21.7765045,217.375713 C21.7765045,217.375713 22.5511692,208.29103 24.1004986,190.121663 C24.4104152,185.322045 25.3741413,167.069875 25.2475083,162.116069 C25.2475083,162.116069 23.0079443,147.159539 18.5288162,117.246478 L56.6602852,113.953392 Z"></path>
                <path fill="#FEE0BC" id="胳膊-path" d="M12.4794433,71.5966519 L12.7892319,89.2591396 C12.7892319,89.2591396 12.7917851,90.5002795 13.719165,91.1181546 C15.3645622,92.214613 18.368263,92.9774536 18.368263,92.9774536 L18.0581908,72.8355226 L12.4794433,71.5966519 Z"></path>
                <path fill="#FEE0BC" id="胳膊-path" d="M68.2666345,56.2436693 L73.5353097,58.4130404 L80.6635674,38.2711095 C80.9340836,37.5820011 81.0402499,36.8393229 80.97364,36.1020221 C80.6993119,33.4512305 79.7339183,29.2849713 79.7339183,29.2849713 C79.6970177,28.5487387 79.8022934,27.812291 80.0439902,27.115884 C81.3875424,23.5890602 84.6928044,16.2704471 84.6928044,16.2704471 C84.6928044,16.2704471 85.1963527,15.5572525 85.6224543,15.6508699 C86.2101646,15.7551413 86.6166286,16.2968862 86.5523873,16.8903079 L85.3126656,24.3272194 C85.3126656,24.3272194 88.3870053,27.607801 89.6531095,29.5950436 C90.1580767,30.3893733 89.9628982,31.4540587 89.9628982,31.4540587 L87.1736668,38.8909702 L80.3549138,68.948405 C80.3549138,68.948405 80.1444163,70.3044392 79.4249807,70.8077038 C78.6022819,71.3838765 77.2556092,71.1174923 77.2556092,71.1174923 L63.3088826,66.7793176 L68.2666345,56.2436693 Z"></path>
                <path fill="url(#linearGradient-26)" id="衣服" d="M29.5254744,42.2997793 C30.991518,42.9795528 32.5646957,43.3989581 34.1745724,43.5392173 C36.2458414,43.6413397 38.3221327,43.5375679 40.3728971,43.2294287 C44.4843231,44.555642 48.5195781,46.1073134 52.4603251,47.877392 C60.0285848,51.2864847 68.5764231,56.2436693 68.5764231,56.2436693 C68.128085,58.660947 67.5066238,61.0428832 66.7168406,63.3710759 C65.8587552,65.7190445 65.176776,67.1346847 63.9714847,69.3247851 L52.7732151,65.7419635 C52.7732151,65.7419635 54.0617505,79.2553998 55.2492733,90.639279 C56.6745277,104.300898 58.3485775,116.668327 58.3485775,116.668327 C58.3485775,116.668327 51.3825299,118.076853 38.6831843,119.137851 C28.4547714,119.992322 16.1138746,119.696186 16.1138746,119.696186 L17.0603572,74.6012821 L9.02358644,71.8798593 C9.02358644,71.8798593 11.6530568,61.7985869 17.43833,52.5256391 C20.3427397,47.8700161 29.5254744,42.2997793 29.5254744,42.2997793 Z"></path>
            </g>
        </g>
    </g>
</svg>