<?xml version="1.0" standalone="no"?><!DOCTYPE svg PUBLIC "-//W3C//DTD SVG 1.1//EN" "http://www.w3.org/Graphics/SVG/1.1/DTD/svg11.dtd"><svg t="1637900131793" class="icon" viewBox="0 0 1024 1024" version="1.1" xmlns="http://www.w3.org/2000/svg" p-id="2204" width="32" height="32" xmlns:xlink="http://www.w3.org/1999/xlink"><defs><style type="text/css"></style></defs><path d="M0 511.148087a511.148087 511.148087 0 1 0 511.148087-511.148087 511.148087 511.148087 0 0 0-511.148087 511.148087z m0 0" fill="#47A9F3" p-id="2205"></path><path d="M626.326789 187.76173H395.287854A92.688186 92.688186 0 0 0 302.599667 280.109151v462.418636a92.688186 92.688186 0 0 0 92.347421 92.347421h231.379701a92.688186 92.688186 0 0 0 92.347421-92.347421V280.109151a92.688186 92.688186 0 0 0-92.347421-92.347421z m-57.930117 589.524127h-115.519467v-34.076539h115.519467z m92.688187-92.347421h-300.555075V268.523128h300.555075z m0 0" fill="#FFFFFF" p-id="2206"></path></svg>