<?xml version="1.0" standalone="no"?><!DOCTYPE svg PUBLIC "-//W3C//DTD SVG 1.1//EN" "http://www.w3.org/Graphics/SVG/1.1/DTD/svg11.dtd"><svg t="1637899749948" class="icon" viewBox="0 0 1024 1024" version="1.1" xmlns="http://www.w3.org/2000/svg" p-id="19960" width="32" height="32" xmlns:xlink="http://www.w3.org/1999/xlink"><defs><style type="text/css"></style></defs><path d="M512 1024c282.752 0 512-229.248 512-512S794.752 0 512 0 0 229.248 0 512s229.248 512 512 512z m209.493333-349.098667h-160.682666c-1.28 7.04-2.261333 14.634667-2.261334 23.296 0 46.506667 46.506667 46.506667 46.506667 46.506667 12.885333 0 23.296 5.248 23.296 11.648 0 6.4-10.410667 11.648-23.253333 11.648H418.901333c-12.842667 0-23.253333-5.205333-23.253333-11.648 0-6.4 10.410667-11.605333 23.253333-11.605333 0 0 46.549333 0 46.549334-46.549334 0-8.661333-0.981333-16.213333-2.261334-23.296H302.506667A46.506667 46.506667 0 0 1 256 628.394667V302.506667C256 276.821333 276.821333 256 302.506667 256h418.986666c25.685333 0 46.506667 20.821333 46.506667 46.506667v325.845333a46.506667 46.506667 0 0 1-46.506667 46.549333zM725.333333 298.666667H298.666667v277.333333h426.666666V298.666667z" fill="#8a8a8a" p-id="19961" data-spm-anchor-id="a313x.7781069.0.i19" class="selected"></path></svg>