<svg xmlns:xlink="http://www.w3.org/1999/xlink" xmlns="http://www.w3.org/2000/svg" version="1.1" viewBox="0 0 1024 1024" height="1024px" width="1024px">
    <title>空数据</title>
    <defs>
        <linearGradient id="linearGradient-1" y2="44.0501254%" x2="50%" y1="-29.88559%" x1="50%">
            <stop offset="0%" stop-color="#CFDFFA"></stop>
            <stop offset="100%" stop-opacity="0" stop-color="#EAF0FC"></stop>
        </linearGradient>
        <linearGradient id="linearGradient-2" y2="69.8229089%" x2="53.6226986%" y1="33.7484636%" x1="50%">
            <stop offset="0%" stop-color="#CFDFFA"></stop>
            <stop offset="100%" stop-opacity="0" stop-color="#EAF0FC"></stop>
        </linearGradient>
        <linearGradient id="linearGradient-3" y2="66.4977364%" x2="53.6226986%" y1="36.47456%" x1="50%">
            <stop offset="0%" stop-color="#CFDFFA"></stop>
            <stop offset="100%" stop-opacity="0" stop-color="#EAF0FC"></stop>
        </linearGradient>
        <linearGradient id="linearGradient-4" y2="100%" x2="57.28025%" y1="11.4973736%" x1="50%">
            <stop offset="0%" stop-color="#BFD4FA"></stop>
            <stop offset="100%" stop-color="#5792F0"></stop>
        </linearGradient>
        <linearGradient id="linearGradient-5" y2="131.881015%" x2="51.9400923%" y1="11.4973736%" x1="50%">
            <stop offset="0%" stop-color="#BFD4FA"></stop>
            <stop offset="100%" stop-color="#5792F0"></stop>
        </linearGradient>
        <linearGradient id="linearGradient-6" y2="128.49897%" x2="74.2827921%" y1="13.0877007%" x1="50%">
            <stop offset="0%" stop-color="#BFD4FA"></stop>
            <stop offset="100%" stop-color="#5792F0"></stop>
        </linearGradient>
        <linearGradient id="linearGradient-7" y2="131.881015%" x2="54.0733641%" y1="11.4973736%" x1="50%">
            <stop offset="0%" stop-color="#BFD4FA"></stop>
            <stop offset="100%" stop-color="#5792F0"></stop>
        </linearGradient>
        <linearGradient id="linearGradient-8" y2="131.881015%" x2="51.9795749%" y1="11.4973736%" x1="50%">
            <stop offset="0%" stop-color="#BFD4FA"></stop>
            <stop offset="100%" stop-color="#5792F0"></stop>
        </linearGradient>
        <linearGradient id="linearGradient-9" y2="131.881015%" x2="55.3643684%" y1="11.4973736%" x1="50%">
            <stop offset="0%" stop-color="#BFD4FA"></stop>
            <stop offset="100%" stop-color="#5792F0"></stop>
        </linearGradient>
        <linearGradient id="linearGradient-10" y2="53.7022797%" x2="74.2827921%" y1="48.2590898%" x1="50%">
            <stop offset="0%" stop-color="#BFD4FA"></stop>
            <stop offset="100%" stop-color="#5792F0"></stop>
        </linearGradient>
        <linearGradient id="linearGradient-11" y2="87.6569286%" x2="9.97724964%" y1="37.4239345%" x1="90.0227504%">
            <stop offset="0%" stop-color="#A2ABB9"></stop>
            <stop offset="100%" stop-color="#E7EAF0"></stop>
        </linearGradient>
        <linearGradient id="linearGradient-12" y2="58.3398714%" x2="50%" y1="25.6021279%" x1="4.78553268%">
            <stop offset="0%" stop-color="#5792F0"></stop>
            <stop offset="100%" stop-opacity="0" stop-color="#BFD4FA"></stop>
        </linearGradient>
        <linearGradient id="linearGradient-13" y2="58.0216147%" x2="144.920412%" y1="45.0381848%" x1="24.8382163%">
            <stop offset="0%" stop-color="#BFD4FA"></stop>
            <stop offset="100%" stop-color="#5792F0"></stop>
        </linearGradient>
        <linearGradient id="linearGradient-14" y2="86.7357868%" x2="144.920412%" y1="27.2768713%" x1="24.8382163%">
            <stop offset="0%" stop-color="#BFD4FA"></stop>
            <stop offset="100%" stop-color="#5792F0"></stop>
        </linearGradient>
        <linearGradient id="linearGradient-15" y2="50%" x2="-11.3176499%" y1="50%" x1="146.853724%">
            <stop offset="0%" stop-opacity="0" stop-color="#EAF0FC"></stop>
            <stop offset="100%" stop-color="#CFDFFA"></stop>
        </linearGradient>
        <linearGradient id="linearGradient-16" y2="143.824014%" x2="68.3765918%" y1="-8.03537495%" x1="45.1286787%">
            <stop offset="0%" stop-color="#BFD4FA"></stop>
            <stop offset="100%" stop-color="#5792F0"></stop>
        </linearGradient>
        <linearGradient id="linearGradient-17" y2="86.6495811%" x2="7.28091586%" y1="36.7497045%" x1="87.9236244%">
            <stop offset="0%" stop-color="#5792F0"></stop>
            <stop offset="100%" stop-opacity="0.5" stop-color="#BFD4FA"></stop>
        </linearGradient>
        <linearGradient id="linearGradient-18" y2="143.824014%" x2="137.17517%" y1="-8.03537495%" x1="26.8913479%">
            <stop offset="0%" stop-color="#BFD4FA"></stop>
            <stop offset="100%" stop-color="#5792F0"></stop>
        </linearGradient>
        <linearGradient id="linearGradient-19" y2="100%" x2="50%" y1="-19.0038784%" x1="50%">
            <stop offset="0%" stop-color="#FFCDA5"></stop>
            <stop offset="100%" stop-color="#FFE8D1"></stop>
        </linearGradient>
        <linearGradient id="linearGradient-20" y2="100%" x2="50%" y1="0%" x1="50%">
            <stop offset="0%" stop-color="#FFF2DF"></stop>
            <stop offset="100%" stop-color="#FEE0BC"></stop>
        </linearGradient>
        <linearGradient id="linearGradient-21" y2="73.6326896%" x2="100%" y1="11.7098971%" x1="14.3474826%">
            <stop offset="0%" stop-color="#BFD4FA"></stop>
            <stop offset="100%" stop-color="#5792F0"></stop>
        </linearGradient>
        <linearGradient id="linearGradient-22" y2="100%" x2="59.1092742%" y1="-31.010887%" x1="43.5046289%">
            <stop offset="0%" stop-color="#BFD4FA"></stop>
            <stop offset="100%" stop-color="#5792F0"></stop>
        </linearGradient>
        <linearGradient id="linearGradient-23" y2="100%" x2="50%" y1="0%" x1="50%">
            <stop offset="0%" stop-color="#FEE127"></stop>
            <stop offset="100%" stop-color="#F9AB21"></stop>
        </linearGradient>
    </defs>
    <g fill-rule="evenodd" fill="none" stroke-width="1" stroke="none" id="空数据">
        <rect height="1024" width="1024" y="0" x="0" id="矩形"></rect>
        <g transform="translate(32.000000, 149.000000)" id="编组">
            <g id="背景">
                <ellipse ry="250" rx="480" cy="766" cx="480" fill="url(#linearGradient-1)" id="椭圆形"></ellipse>
                <path fill="url(#linearGradient-2)" id="云" d="M814,116.212121 C814,130.606061 800.181818,142.121212 782.727273,142.121212 L686,142.121212 C668.545455,140.969697 654,130.030303 654,115.060606 C654,105.272727 660.545455,96.6363636 670,92.030303 C669.272727,90.3030303 668.545455,88.5757576 668.545455,86.8484848 C668.545455,77.0606061 678,68.4242424 690.363636,68.4242424 C695.454545,68.4242424 699.818182,70.1515152 703.454545,72.4545455 C712.181818,59.2121212 728.181818,50 747.090909,50 C773.272727,50 794.363636,67.8484848 794.363636,89.7272727 L794.363636,92.030303 C806,96.0606061 814,105.272727 814,116.212121 Z"></path>
                <path fill="url(#linearGradient-3)" id="云" d="M166.222222,0 C190.894883,0 211.8847,15.7681262 219.664106,37.7768098 L256.5,37.7777778 C266.164983,37.7777778 274,45.6127947 274,55.2777778 L274,98.0555556 C274,107.720539 266.164983,115.555556 256.5,115.555556 L78.1666667,115.555556 C68.5016835,115.555556 60.6666667,107.720539 60.6666667,98.0555556 L60.6669111,85.6467185 C56.4406838,78.8453656 54,70.81882 54,62.2222222 C54,37.6762333 73.8984556,17.7777778 98.4444444,17.7777778 C106.377692,17.7777778 113.825468,19.8563268 120.272891,23.4985432 C130.565544,9.26259942 147.312185,0 166.222222,0 Z"></path>
                <g transform="translate(170.000000, 570.000000)" id="草">
                    <ellipse ry="4" rx="12.8" cy="78" cx="26.8" fill="#CCDCF6" id="椭圆形"></ellipse>
                    <path fill-rule="nonzero" fill="url(#linearGradient-4)" id="路径-42" d="M13.2096985,76.4334696 C14.9527214,47.3262499 22.2548023,30.479152 35.1159413,25.892176 C40.1793835,25.2161532 45.8226773,24.1997042 41.8878028,30.7617951 C37.9529282,37.3238861 27.4160559,34.7701422 16.879533,76.4161198 C15.9265298,78.1966928 14.7032516,78.202476 13.2096985,76.4334696 Z"></path>
                    <path fill-rule="nonzero" fill="url(#linearGradient-5)" id="路径-41" d="M12.9692534,76.0688036 C9.54744327,48.8820916 6.74680699,31.7849012 4.56734456,24.7772324 C1.2981509,14.2657291 -5.66257226,-5.963969 8.82439601,1.68943966 C23.3113643,9.34284832 25.0241679,48.6011298 18.327685,72.4929976 C16.2462776,78.5387167 14.4601337,79.730652 12.9692534,76.0688036 Z"></path>
                </g>
                <g fill-rule="nonzero" transform="translate(686.120225, 515.426704)" id="草">
                    <path fill="url(#linearGradient-6)" id="路径-43" d="M65.8576891,95.4430222 C63.3395468,83.9806553 55.9856639,75.9680543 43.7960405,71.4052192 C29.8759357,66.9305791 22.2494886,61.6117041 30.9599814,57.7550267 C38.3155159,57.1703291 54.0022982,51.4419217 65.8576891,85.6583003 C66.6827635,88.9740418 66.6827635,92.2356158 65.8576891,95.4430222 Z"></path>
                    <path fill="url(#linearGradient-7)" id="路径-44" d="M66.4764949,97.2611071 C59.1454779,69.8960192 50.8174439,49.9170768 41.4923928,37.3242799 C34.6452589,28.7188412 35.1250476,16.405104 41.4923928,13.6218727 C48.0100381,12.8970718 60.0222617,11.7760378 69.0669112,58.9373338 C69.6381527,62.1812743 72.8251647,81.1589956 69.0669112,93.4066801 C68.5106318,95.0875751 67.6471596,96.3723841 66.4764949,97.2611071 Z"></path>
                    <path fill="url(#linearGradient-8)" id="路径-45" d="M68.1696321,91.0804085 C71.4853494,78.835463 71.0643832,62.8586309 66.9067333,43.1499123 C60.5471905,24.0440706 49.6921744,0.541796566 69.4774519,0 C77.5044316,1.09154868 87.1972186,9.50543486 83.5347739,51.4392686 C81.3029234,68.3604083 77.4213217,78.3565362 73.3477064,91.0804085 C71.9266832,91.8737887 70.2006584,91.8737887 68.1696321,91.0804085 Z"></path>
                    <path fill="url(#linearGradient-9)" id="路径-46" d="M72.0427224,95.836031 C70.7154818,61.2121058 77.0522244,36.363996 91.0529503,21.2917016 C94.833726,16.2551414 109.217459,11.5380494 109.163159,27.3263959 C107.661554,34.1152854 104.448437,48.6087163 85.9202741,70.7214245 C79.8162941,78.7025415 75.8046094,90.365172 75.7655073,93.0996265 C75.7394392,94.9225962 74.4985109,95.834731 72.0427224,95.836031 Z"></path>
                    <path fill="url(#linearGradient-10)" id="路径-47" d="M0,100.407711 C13.8643816,97.8236334 21.5103995,95.6299697 22.9380537,93.8267198 C25.0795349,91.1218449 43.9450099,79.5080271 55.7094426,89.2905093 C58.2703723,85.9992821 66.4835238,83.4391237 71.1837342,89.2905093 C73.3341085,80.0524096 86.7490663,74.1360276 92.583369,75.0945046 C99.1537088,74.5803177 118.55034,74.7942504 120,100.407711 C114.707841,100.530921 74.7078414,100.530921 0,100.407711 Z"></path>
                </g>
            </g>
            <g transform="translate(250.000000, 84.423863)" stroke-linecap="round" id="Group-7">
                <polygon points="9.17159763 513.297681 361.706847 692.984031 620 546.443707 288.407439 443.516575" opacity="0.3" fill-rule="nonzero" fill="url(#linearGradient-12)" id="Path-10"></polygon>
                <polygon points="38.3372781 225.232551 0 316.948528 313.668639 316.948528 274.705113 225.232551" fill-rule="nonzero" fill="url(#linearGradient-13)" id="Path-7"></polygon>
                <rect rx="5" height="18.3431953" width="104.556213" y="245.410066" x="104.556213" fill="#FFFFFF" id="Rectangle"></rect>
                <polygon points="0 316.948528 313.668639 316.948528 303.763314 513.220717 9.90532544 513.220717" fill-rule="nonzero" fill="url(#linearGradient-14)" id="Rectangle"></polygon>
                <rect rx="5" height="18.3431953" width="126.568047" y="346.29764" x="93.5502959" fill="#FFFFFF" id="Rectangle"></rect>
                <path fill="url(#linearGradient-15)" id="Star" d="M156.83432,469.655628 L126.458406,485.625191 C125.480717,486.139193 124.271462,485.7633 123.757461,484.78561 C123.552783,484.396289 123.482153,483.950353 123.556507,483.516838 L129.35779,449.692761 L129.35779,449.692761 L104.78316,425.738417 C103.992193,424.967414 103.976008,423.701188 104.747011,422.910221 C105.054028,422.595254 105.456313,422.390279 105.891587,422.32703 L139.852891,417.392164 L139.852891,417.392164 L155.040847,386.618002 C155.529692,385.627495 156.728944,385.220817 157.719451,385.709661 C158.113876,385.904322 158.433131,386.223577 158.627792,386.618002 L173.815748,417.392164 L173.815748,417.392164 L207.777052,422.32703 C208.870142,422.485865 209.627505,423.500751 209.46867,424.593841 C209.405421,425.029115 209.200446,425.4314 208.885479,425.738417 L184.310849,449.692761 L184.310849,449.692761 L190.112132,483.516838 C190.298854,484.605511 189.567678,485.639423 188.479006,485.826145 C188.04549,485.900499 187.599554,485.829869 187.210233,485.625191 L156.83432,469.655628 L156.83432,469.655628 Z"></path>
                <polygon points="38.1213564 225.232551 40.3550296 316.948528 -6.54085935e-15 316.948528" fill-rule="nonzero" fill="url(#linearGradient-16)" id="Path-8"></polygon>
                <polygon points="311.434966 225.232551 313.668639 316.948528 273.313609 316.948528" transform="translate(293.491124, 271.090539) scale(-1, 1) translate(-293.491124, -271.090539)" fill-rule="nonzero" fill="url(#linearGradient-16)" id="Path-8-Copy"></polygon>
                <path transform="translate(155.924534, 187.358175) rotate(20.000000) translate(-155.924534, -187.358175)" fill-rule="nonzero" stroke-dasharray="4" stroke-linejoin="round" stroke="url(#linearGradient-17)" id="Path-11" d="M55.0369598,131.250269 C73.9565288,179.785848 98.7604485,198.014546 129.448719,185.936364 C175.481125,167.81909 170.917104,97.6588238 129.448719,113.049427 C104.986747,134.06681 125.911653,177.480177 212.50719,167.651953 C274.57368,151.967663 263.543118,232.65496 227.517757,263.856404"></path>
                <g fill-rule="nonzero" fill="url(#linearGradient-18)" transform="translate(67.869822, 45.469238) scale(-1, 1) rotate(-2.000000) translate(-67.869822, -45.469238) translate(25.680473, 1.445569)" id="plane">
                    <polygon points="47.5108723 69.8474131 72.3112402 80.6150112 84.3786982 0 0 49.7406436 22.1402144 60.2233174 75.6370402 11.4349258 32.6867368 65.1782665 32.1165441 88.0473373" id="路径"></polygon>
                </g>
            </g>
            <g transform="translate(547.740786, 446.000000)" id="人物">
                <ellipse ry="16" rx="50" cy="246" cx="64.2592141" fill="#CCDCF6" id="椭圆形"></ellipse>
                <rect height="16" width="16" y="58" x="50.8848707" fill="url(#linearGradient-19)" id="矩形"></rect>
                <ellipse ry="5" rx="3" cy="45" cx="79.2592141" transform="translate(79.259214, 45.000000) rotate(22.000000) translate(-79.259214, -45.000000)" fill="#FEE0BC" id="椭圆形"></ellipse>
                <ellipse ry="5" rx="3" cy="45" cx="37.2592141" transform="translate(37.259214, 45.000000) scale(-1, 1) rotate(23.000000) translate(-37.259214, -45.000000)" fill="#FEE0BC" id="椭圆形备份-2"></ellipse>
                <circle r="20" cy="42" cx="58.8848707" fill="url(#linearGradient-20)" id="椭圆形"></circle>
                <path fill-rule="nonzero" fill="url(#linearGradient-21)" id="路径-52" d="M48.8892618,234.435362 L48.059966,239.854984 C44.6826208,239.960606 41.0098061,240.953363 37.0415219,242.833257 C34.487945,244.471596 34.3742923,245.21393 34.2920856,246.624613 C34.2372812,247.565068 41.4521496,247.565068 55.9366907,246.624613 L55.9366907,232.449114 L48.8892618,234.435362 Z"></path>
                <path transform="translate(83.114233, 239.889534) scale(-1, 1) translate(-83.114233, -239.889534)" fill-rule="nonzero" fill="url(#linearGradient-21)" id="路径-52备份" d="M86.8892618,234.435362 L86.059966,239.854984 C82.6826208,239.960606 79.0098061,240.953363 75.0415219,242.833257 C72.487945,244.471596 72.3742923,245.21393 72.2920856,246.624613 C72.2372812,247.565068 79.4521496,247.565068 93.9366907,246.624613 L93.9366907,232.449114 L86.8892618,234.435362 Z"></path>
                <polygon points="41.1706028 135.416761 46.9432818 236.337846 58.2592141 236.178371 63.1480474 143.025943 70.7626072 236.138368 81.4017139 235.965475 84.2469427 135.635281" fill-rule="nonzero" fill="url(#linearGradient-22)" id="路径-49"></polygon>
                <path fill="#FEE0BC" id="路径-50" d="M104.884871,93.3756537 C106.374347,92.1914938 107.919885,91.7338288 109.521485,92.0026586 C110.603108,92.0272124 111.224168,91.7588443 111.384665,91.1975542 C113.250833,90.9122664 113.997501,91.275283 113.624669,92.2866039 C113.251837,93.2979249 112.783428,93.6609415 112.219442,93.3756537 L114.789004,94.5533793 L117.231702,92.8283887 C120.255529,92.8636771 121.402178,93.8790706 120.67165,95.8745693 C119.405116,97.959611 115.946766,100.573222 111.384665,98.3963312 C110.38424,97.6352154 109.474511,97.2906422 108.655478,97.3626115 L104.884871,93.3756537 Z"></path>
                <path transform="translate(8.884871, 99.160067) scale(-1, 1) rotate(-19.000000) translate(-8.884871, -99.160067)" fill="#FEE0BC" id="路径-50备份" d="M0.884870738,97.3756537 C2.37434686,96.1914938 3.91988489,95.7338288 5.52148482,96.0026586 C6.60310764,96.0272124 7.22416767,95.7588443 7.38466492,95.1975542 C9.25083322,94.9122664 9.99750129,95.275283 9.62466911,96.2866039 C9.25183694,97.2979249 8.78342795,97.6609415 8.21944214,97.3756537 L10.789004,98.5533793 L13.2317017,96.8283887 C16.2555287,96.8636771 17.402178,97.8790706 16.6716497,99.8745693 C15.4051164,101.959611 11.9467659,104.573222 7.38466492,102.396331 C6.38423994,101.635215 5.47451088,101.290642 4.65547772,101.362612 L0.884870738,97.3756537 Z"></path>
                <path fill="url(#linearGradient-23)" id="路径-48" d="M50.3045934,65.3615688 L60.2592141,71.9185153 L67.4693722,64.9716148 L89.1719224,73.0783231 L94.3769292,100.674962 L104.759208,92 L111.691525,98.3485208 L95.6161502,122.491822 C91.0021375,127.409128 87.5657096,127.409128 85.3068663,122.491822 C84.8029609,119.624971 83.3552294,109.85144 80.9636717,93.1712309 L85.5823019,136.55802 L39.9136435,137.029307 L43.0995902,93.1879391 C42.4782154,113.052016 39.5314234,122.819977 34.2592141,122.491822 C30.4840645,121.488548 22.6481891,115.743249 10.7515877,105.255923 L13.7691985,97.159835 L28.0438704,104.66316 L31.017116,77.7231184 L50.3045934,65.3615688 Z"></path>
                <ellipse ry="7" rx="9" cy="7" cx="57.2592141" fill="#483029" id="椭圆形"></ellipse>
                <path fill="#483029" id="路径-51" d="M36.0475062,44 C49.9155751,36.4746607 57.3897686,30.2324035 58.4700866,25.2732285 C60.8119611,32.0022993 75.1844585,42.4238091 80.8926669,42.3267746 C84.0506576,33.2201364 84.9247391,24.6473188 74.9517243,16.2874954 C64.9787096,7.92767201 53.4790886,7.88069729 40.8827774,16.2874954 C32.4138542,23.4061673 30.8020971,32.6436688 36.0475062,44 Z"></path>
            </g>
        </g>
    </g>
</svg>