<?xml version="1.0" standalone="no"?><!DOCTYPE svg PUBLIC "-//W3C//DTD SVG 1.1//EN" "http://www.w3.org/Graphics/SVG/1.1/DTD/svg11.dtd"><svg t="1637899690506" class="icon" viewBox="0 0 1024 1024" version="1.1" xmlns="http://www.w3.org/2000/svg" p-id="6461" data-spm-anchor-id="a313x.7781069.0.i10" width="32" height="32" xmlns:xlink="http://www.w3.org/1999/xlink"><defs><style type="text/css"></style></defs><path d="M512.874146 15.484878c-275.880585 0-499.512195 223.656585-499.512195 499.512195 0 275.905561 223.63161 499.512195 499.512195 499.512195s499.512195-223.606634 499.512195-499.512195c0-275.85561-223.63161-499.512195-499.512195-499.512195z m231.473952 433.052098c-0.999024 4.345756-3.596488 10.789463-7.192976 18.481951h0.099902l-0.399609 0.749268c-20.979512 44.856195-75.726049 132.870244-75.726049 132.870244l-0.249756-0.599415-15.98439 27.872781h77.074731l-147.256195 195.758829 33.467317-133.169951h-60.690732l21.079415-88.064c-17.033366 4.096-37.213659 9.740488-61.090341 17.432976 0 0-32.268488 18.881561-93.009171-36.364488 0 0-40.96-36.114732-17.18322-45.105951 10.090146-3.846244 49.002146-8.741463 79.622244-12.837464 41.459512-5.594537 66.884683-8.59161 66.884683-8.59161s-127.625366 1.898146-157.895805-2.847219c-30.270439-4.745366-68.682927-55.296-76.874926-99.702634 0 0-12.637659-24.376195 27.223414-12.837464 39.861073 11.538732 204.849951 44.956098 204.849951 44.956098s-214.540488-65.785756-228.876487-81.870049c-14.286049-15.98439-42.008976-87.614439-38.412488-131.571512 0 0 1.548488-10.989268 12.837463-7.992195 0 0 158.645073 72.429268 267.089171 112.140488 108.494049 39.71122 202.801951 59.891512 190.613854 111.291317z" fill="#3AA2EB" p-id="6462"></path></svg>