<svg xmlns:xlink="http://www.w3.org/1999/xlink" xmlns="http://www.w3.org/2000/svg" version="1.1" viewBox="0 0 1024 1024" height="1024px" width="1024px">
    <title>页面不见了</title>
    <defs>
        <linearGradient id="linearGradient-1" y2="44.0501254%" x2="50%" y1="-29.88559%" x1="50%">
            <stop offset="0%" stop-color="#CFDFFA"></stop>
            <stop offset="100%" stop-opacity="0" stop-color="#EAF0FC"></stop>
        </linearGradient>
        <linearGradient id="linearGradient-2" y2="69.8229089%" x2="53.6226986%" y1="33.7484636%" x1="50%">
            <stop offset="0%" stop-color="#CFDFFA"></stop>
            <stop offset="100%" stop-opacity="0" stop-color="#EAF0FC"></stop>
        </linearGradient>
        <linearGradient id="linearGradient-3" y2="66.4977364%" x2="53.6226986%" y1="36.47456%" x1="50%">
            <stop offset="0%" stop-color="#CFDFFA"></stop>
            <stop offset="100%" stop-opacity="0" stop-color="#EAF0FC"></stop>
        </linearGradient>
        <linearGradient id="linearGradient-4" y2="100%" x2="57.28025%" y1="11.4973736%" x1="50%">
            <stop offset="0%" stop-color="#BFD4FA"></stop>
            <stop offset="100%" stop-color="#5792F0"></stop>
        </linearGradient>
        <linearGradient id="linearGradient-5" y2="131.881015%" x2="51.9400923%" y1="11.4973736%" x1="50%">
            <stop offset="0%" stop-color="#BFD4FA"></stop>
            <stop offset="100%" stop-color="#5792F0"></stop>
        </linearGradient>
        <linearGradient id="linearGradient-6" y2="128.49897%" x2="74.2827921%" y1="13.0877007%" x1="50%">
            <stop offset="0%" stop-color="#BFD4FA"></stop>
            <stop offset="100%" stop-color="#5792F0"></stop>
        </linearGradient>
        <linearGradient id="linearGradient-7" y2="131.881015%" x2="54.0733641%" y1="11.4973736%" x1="50%">
            <stop offset="0%" stop-color="#BFD4FA"></stop>
            <stop offset="100%" stop-color="#5792F0"></stop>
        </linearGradient>
        <linearGradient id="linearGradient-8" y2="131.881015%" x2="51.9795749%" y1="11.4973736%" x1="50%">
            <stop offset="0%" stop-color="#BFD4FA"></stop>
            <stop offset="100%" stop-color="#5792F0"></stop>
        </linearGradient>
        <linearGradient id="linearGradient-9" y2="131.881015%" x2="55.3643684%" y1="11.4973736%" x1="50%">
            <stop offset="0%" stop-color="#BFD4FA"></stop>
            <stop offset="100%" stop-color="#5792F0"></stop>
        </linearGradient>
        <linearGradient id="linearGradient-10" y2="53.7022797%" x2="74.2827921%" y1="48.2590898%" x1="50%">
            <stop offset="0%" stop-color="#BFD4FA"></stop>
            <stop offset="100%" stop-color="#5792F0"></stop>
        </linearGradient>
        <linearGradient id="linearGradient-11" y2="56.4299862%" x2="50%" y1="31.1894006%" x1="4.78553268%">
            <stop offset="0%" stop-color="#5792F0"></stop>
            <stop offset="100%" stop-opacity="0" stop-color="#BFD4FA"></stop>
        </linearGradient>
        <linearGradient id="linearGradient-12" y2="56.2987028%" x2="50%" y1="31.5734636%" x1="4.78553268%">
            <stop offset="0%" stop-color="#5792F0"></stop>
            <stop offset="100%" stop-opacity="0" stop-color="#BFD4FA"></stop>
        </linearGradient>
        <linearGradient id="linearGradient-13" y2="59.4793792%" x2="50%" y1="22.2685555%" x1="4.78553268%">
            <stop offset="0%" stop-color="#5792F0"></stop>
            <stop offset="100%" stop-opacity="0" stop-color="#BFD4FA"></stop>
        </linearGradient>
        <linearGradient id="linearGradient-14" y2="106.768438%" x2="100%" y1="56.0433455%" x1="50%">
            <stop offset="0%" stop-color="#BFD4FA"></stop>
            <stop offset="100%" stop-color="#5792F0"></stop>
        </linearGradient>
        <linearGradient id="linearGradient-15" y2="82.0088473%" x2="100%" y1="31.493659%" x1="24.8382163%">
            <stop offset="0%" stop-color="#BFD4FA"></stop>
            <stop offset="100%" stop-color="#5792F0"></stop>
        </linearGradient>
        <linearGradient id="linearGradient-16" y2="150.378862%" x2="72.8112149%" y1="60.6859404%" x1="50%">
            <stop offset="0%" stop-color="#BFD4FA"></stop>
            <stop offset="100%" stop-color="#5792F0"></stop>
        </linearGradient>
        <linearGradient id="linearGradient-17" y2="150.378862%" x2="72.8112149%" y1="-8.03537495%" x1="38.5205829%">
            <stop offset="0%" stop-color="#BFD4FA"></stop>
            <stop offset="100%" stop-color="#5792F0"></stop>
        </linearGradient>
        <linearGradient id="linearGradient-18" y2="150.378862%" x2="95.9201389%" y1="-8.03537495%" x1="26.8913479%">
            <stop offset="0%" stop-color="#BFD4FA"></stop>
            <stop offset="100%" stop-color="#5792F0"></stop>
        </linearGradient>
        <linearGradient id="linearGradient-19" y2="73.6326896%" x2="100%" y1="11.7098971%" x1="14.3474826%">
            <stop offset="0%" stop-color="#BFD4FA"></stop>
            <stop offset="100%" stop-color="#5792F0"></stop>
        </linearGradient>
        <linearGradient id="linearGradient-20" y2="-24.285207%" x2="68.3293688%" y1="121.736838%" x1="26.3096272%">
            <stop offset="0%" stop-color="#5792F0"></stop>
            <stop offset="100%" stop-color="#BFD4FA"></stop>
        </linearGradient>
        <linearGradient id="linearGradient-21" y2="44.1197864%" x2="48.2269264%" y1="-31.4050544%" x1="24.9110731%">
            <stop offset="0%" stop-color="#BFD4FA"></stop>
            <stop offset="100%" stop-color="#5792F0"></stop>
        </linearGradient>
        <linearGradient id="linearGradient-22" y2="100%" x2="50%" y1="-19.0038784%" x1="50%">
            <stop offset="0%" stop-color="#FFCDA5"></stop>
            <stop offset="100%" stop-color="#FFE8D1"></stop>
        </linearGradient>
        <linearGradient id="linearGradient-23" y2="100%" x2="50%" y1="0%" x1="50%">
            <stop offset="0%" stop-color="#FFF2DF"></stop>
            <stop offset="100%" stop-color="#FEE0BC"></stop>
        </linearGradient>
        <linearGradient id="linearGradient-24" y2="100%" x2="50%" y1="0%" x1="50%">
            <stop offset="0%" stop-color="#FEE127"></stop>
            <stop offset="100%" stop-color="#F9AB21"></stop>
        </linearGradient>
    </defs>
    <g fill-rule="evenodd" fill="none" stroke-width="1" stroke="none" id="页面不见了">
        <rect height="1024" width="1024" y="0" x="0" id="矩形"></rect>
        <g transform="translate(12.000000, 149.000000)" id="编组-2">
            <g id="背景">
                <ellipse ry="245.857359" rx="472.046129" cy="753.306947" cx="472.046129" fill="url(#linearGradient-1)" id="椭圆形"></ellipse>
                <path fill="url(#linearGradient-2)" id="云" d="M800.51156,114.286421 C800.51156,128.441844 786.922353,139.766183 769.757039,139.766183 L674.632592,139.766183 C657.467278,138.633749 643.16285,127.875627 643.16285,113.153987 C643.16285,103.528299 649.599843,95.0350445 658.897721,90.5053089 C658.1825,88.806658 657.467278,87.1080072 657.467278,85.4093564 C657.467278,75.7836682 666.765157,67.290414 678.923921,67.290414 C683.93047,67.290414 688.221799,68.9890649 691.797906,71.2539327 C700.380563,58.2309429 716.115434,49.1714717 734.71119,49.1714717 C760.459161,49.1714717 781.200582,66.7241971 781.200582,88.2404411 L781.200582,90.5053089 C792.644124,94.4688275 800.51156,103.528299 800.51156,114.286421 Z"></path>
                <path fill="url(#linearGradient-3)" id="云" d="M163.467826,0 C187.73185,0 208.373997,15.5070991 216.024339,37.1513703 L251.959665,37.1517786 C261.624648,37.1517786 269.459665,44.9867955 269.459665,54.6517786 L269.459665,96.1407347 C269.459665,105.805718 261.624648,113.640735 251.959665,113.640735 L77.1613857,113.640735 C67.4964026,113.640735 59.6613857,105.805718 59.6613857,96.1407347 L59.6617661,84.2277293 C55.5054837,77.5390305 53.1051895,69.645407 53.1051895,61.1911648 C53.1051895,37.0519169 72.6739164,17.4831899 96.8131643,17.4831899 C104.615035,17.4831899 111.939469,19.5273392 118.280101,23.1092719 C128.401488,9.10939538 144.870851,0 163.467826,0 Z"></path>
                <g transform="translate(167.183004, 560.554778)" id="草">
                    <ellipse ry="3.93371774" rx="12.5878968" cy="76.7074959" cx="26.3559088" fill="#CCDCF6" id="椭圆形"></ellipse>
                    <path fill-rule="nonzero" fill="url(#linearGradient-4)" id="路径-42" d="M12.9908063,75.1669238 C14.7049463,46.5420272 21.8860277,29.9740952 34.5340503,25.463128 C39.5135884,24.7983073 45.0633697,23.7987014 41.1936982,30.2520548 C37.3240267,36.7054082 26.9617564,34.1939813 16.5998296,75.1498615 C15.6626182,76.9009293 14.4596104,76.9066168 12.9908063,75.1669238 Z"></path>
                    <path fill-rule="nonzero" fill="url(#linearGradient-5)" id="路径-41" d="M12.7543455,74.8083005 C9.38923674,48.0720877 6.63500859,31.2582074 4.49166107,24.3666596 C1.27663981,14.0293379 -5.56874024,-5.86514266 8.67817078,1.66144469 C22.9250818,9.18803204 24.6095033,47.7957816 18.0239849,71.2917476 C15.9770676,77.2372858 14.2205211,78.4094701 12.7543455,74.8083005 Z"></path>
                </g>
                <g fill-rule="nonzero" transform="translate(674.750825, 506.885792)" id="草">
                    <path fill="url(#linearGradient-6)" id="路径-43" d="M64.76639,93.8614773 C62.2899746,82.5890484 55.0579498,74.7092207 43.0703153,70.2219943 C29.3808745,65.8215015 21.880802,60.5907634 30.446957,56.7979932 C37.6806062,56.2229845 53.1074496,50.5895 64.76639,84.2388938 C65.5777924,87.4996916 65.5777924,90.7072195 64.76639,93.8614773 Z"></path>
                    <path fill="url(#linearGradient-7)" id="路径-44" d="M65.3749418,95.6494355 C58.1654039,68.7378026 49.9753701,49.0899226 40.8048404,36.7057954 C34.0711674,28.2429538 34.5430057,16.1332622 40.8048404,13.3961506 C47.2144846,12.68336 59.0276588,11.5809021 67.9224334,57.9607089 C68.4842092,61.1508954 71.6184106,79.8141452 67.9224334,91.8588786 C67.3753719,93.5119202 66.526208,94.7754392 65.3749418,95.6494355 Z"></path>
                    <path fill="url(#linearGradient-8)" id="路径-45" d="M67.0400228,89.5711547 C70.3007968,77.5291148 69.8868062,61.8170279 65.7980509,42.4348938 C59.5438893,23.6456467 48.868747,0.532818691 68.3261712,0 C76.2201393,1.0734611 85.7523114,9.34792443 82.1505555,50.5868908 C79.955688,67.2276377 76.1384066,77.0581241 72.1322934,89.5711547 C70.7348174,90.3513881 69.0373938,90.3513881 67.0400228,89.5711547 Z"></path>
                    <path fill="url(#linearGradient-9)" id="路径-46" d="M70.8489337,94.2479738 C69.5436863,60.1977866 75.7754255,35.761424 89.5441514,20.9388861 C93.2622775,15.9857846 107.407664,11.3468574 107.354264,26.8735821 C105.877541,33.5499758 102.717667,47.8032424 84.4965266,69.5495305 C78.4936929,77.3983959 74.5484841,88.86777 74.51003,91.556913 C74.4843938,93.3496751 73.2640284,94.2466953 70.8489337,94.2479738 Z"></path>
                    <path fill="url(#linearGradient-10)" id="路径-47" d="M0,98.7438983 C13.634641,96.2026404 21.15396,94.045327 22.5579571,92.271958 C24.6639528,89.6119044 43.2168162,78.1905342 54.7863056,87.810915 C57.3047993,84.5742254 65.3818543,82.0564903 70.0041795,87.810915 C72.1189208,78.7258959 85.3115853,72.9075517 91.0492103,73.8501462 C97.5106758,73.3444797 116.585894,73.5548674 118.011532,98.7438983 C112.807068,98.8650663 73.4698902,98.8650663 0,98.7438983 Z"></path>
                </g>
            </g>
            <g fill-rule="nonzero" transform="translate(134.769845, 150.447459)" id="编组">
                <polygon points="122.295136 438.65303 513.388055 640.740847 745.308425 532.755379 251.412337 417.323275" opacity="0.3" fill="url(#linearGradient-11)" id="Path-10"></polygon>
                <polygon points="401.631947 420.514276 832.669767 563.728617 865.230155 445.655954 530.749149 399.184521" opacity="0.3" fill="url(#linearGradient-12)" id="Path-10备份-2"></polygon>
                <polygon points="300.054925 400.561647 731.179485 580.710873 734.27946 504.377553 366.855453 391.641222" opacity="0.3" fill="url(#linearGradient-13)" id="Path-10备份"></polygon>
                <g transform="translate(119.435048, 253.958820)" id="编组-6">
                    <g transform="translate(0.000000, 96.977670)" id="4">
                        <path fill="url(#linearGradient-14)" id="形状结合" d="M81.2882565,7.09112528 L83.4382684,44.9311771 L23.6934806,42.1388532 L81.2882565,7.09112528 Z M68.2664653,56.8463791 L68.2400102,71.3751253 L102.634161,70.9956617 L102.601159,99.5952277 L63.2826427,100.017668 L63.2820102,87.7001253 L0.0370101925,87.7672957 L0.0370101925,56.9314139 L68.2664653,56.8463791 Z M105.502762,56.0972525 L123.605415,55.978601 L123.605415,85.0006074 L105.502762,85.1192589 L105.502762,56.0972525 Z"></path>
                        <polygon points="102.636139 70.9854401 102.636139 98.2527773 105.480012 87.4905667 105.501296 56.0982824" fill="#AFB7C3" id="路径-23"></polygon>
                        <polygon points="123.609727 55.9715431 126.550283 40.9474743 126.578247 74.358017 123.601657 85.0841154" fill="#AFB7C3" id="路径-24"></polygon>
                        <path fill="url(#linearGradient-15)" d="M102.636139,70.9854401 L105.501296,56.0982824 L123.609727,55.9715431 L126.550283,40.7876726 L108.441851,40.8193574 L116.207934,0.467324645 L77.6291019,4.12114787e-13 L3.16675216,39.7860543 L0,56.8366766 L66.1351405,56.3738026 L63.2699838,71.462302 L102.636139,70.9854401 Z M69.0756961,40.8882374 L35.2208027,40.9474743 L73.2226335,19.0496199 L69.0756961,40.8882374 Z"></path>
                    </g>
                    <g transform="translate(146.266794, 0.000000)" id="0">
                        <path transform="translate(70.647577, 77.086547) rotate(15.000000) translate(-70.647577, -77.086547)" fill="url(#linearGradient-16)" d="M60.612807,143.96945 C64.9319797,144.48905 68.3580904,144.716375 70.891139,144.651425 C71.8004386,144.651425 74.2522998,144.521525 78.2467226,144.261725 C82.2411455,144.001925 85.3100314,143.677176 87.4533803,143.287476 C89.5967291,142.897776 91.8050279,142.296989 94.0782767,141.485114 C96.3515255,140.67324 98.5273494,139.682753 100.605748,138.513653 C102.684147,137.344554 104.405321,136.191692 105.769271,135.055068 C107.13322,133.918443 108.562119,132.278457 110.055968,130.135108 C111.549817,127.991759 112.832579,125.020298 113.904254,121.220725 C114.975928,117.421152 115.641665,114.303554 115.901465,111.86793 C116.161265,109.432306 116.291165,105.746396 116.291165,100.810198 L116.291165,100.810198 L116.291165,48.4930011 C116.291165,46.2197523 116.145028,43.8490786 115.852753,41.3809799 C115.560478,38.9128812 115.154541,36.7532948 114.634941,34.9022208 C114.115341,33.0511468 113.352179,31.0376979 112.345455,28.861874 C111.33873,26.6860502 109.747456,24.3965639 107.571632,21.9934152 C105.395808,19.5902665 103.268697,17.6417675 101.190298,16.1479183 C99.1118991,14.6540691 96.8711253,13.3875447 94.4679765,12.3483453 C92.0648278,11.3091459 89.3369293,10.5622212 86.2842809,10.1075715 C83.2316325,9.65292173 79.5294845,9.45807183 75.1778368,9.5230218 L75.1778368,9.5230218 L67.188991,9.7178717 C61.6682439,9.91272159 57.5276836,10.2049964 54.7673101,10.5946962 C52.0069366,10.984396 49.1329006,11.8612206 46.1452022,13.2251698 C43.1575038,14.5891191 40.5432677,16.2453432 38.3024939,18.1938422 C36.06172,20.1423412 34.308071,22.0258902 33.0415466,23.8444892 C31.7750223,25.6630882 30.573448,27.5791122 29.4368236,29.5925611 C28.3001992,31.6060101 27.3746622,33.9604463 26.6602125,36.6558699 C25.9457629,39.3512935 25.3936882,43.069679 25.0039884,47.8110265 L25.0039884,47.8110265 L25.0039884,101.005048 C25.0039884,104.187597 25.1826008,107.20777 25.5398256,110.065568 C25.8970504,112.923367 26.5790251,116.219578 27.5857495,119.954201 C28.592474,123.688824 30.1187982,126.855134 32.1647221,129.453133 C34.210646,132.051132 36.1753825,134.129531 38.0589315,135.68833 C39.9424805,137.247129 42.1345418,138.627316 44.6351155,139.82889 C47.1356892,141.030464 49.343988,141.891052 51.260012,142.410651 C53.176036,142.930251 56.2936343,143.449851 60.612807,143.96945 Z M73.6190376,115.229091 L72.4499382,115.229091 C68.3580904,115.229091 65.2242546,114.693253 63.0484307,113.621579 C60.8726069,112.549905 58.9728204,110.942393 57.3490712,108.799044 C55.7253221,106.655695 54.7185976,104.073934 54.3288978,101.053761 C53.9391981,98.0335873 53.7443482,94.6399516 53.7443482,90.8728536 L53.7443482,90.8728536 L53.6469232,56.3844219 C53.5819732,50.7987249 54.036623,47.0316269 55.0108725,45.0831279 C55.985122,43.134629 56.8944215,41.6894922 57.738771,40.7477177 C58.5831206,39.8059432 59.9957823,38.8804062 61.9767563,37.9711067 C63.9577302,37.0618072 65.6626668,36.6071574 67.0915661,36.6071574 L67.0915661,36.6071574 L71.3782638,36.7045824 C74.3659622,36.8344823 76.9639608,37.354082 79.1722597,38.2633815 C81.3805585,39.1726811 83.0043076,40.1794055 84.0435071,41.2835549 C85.0827065,42.3877043 85.9757685,44.6934281 86.7226931,48.2007263 C87.4696177,51.7080244 87.84308,55.0529476 87.84308,58.2354959 L87.84308,58.2354959 L87.84308,91.3599783 C87.84308,92.3991778 87.6644676,95.0458889 87.3072428,99.3001116 C86.950018,103.554334 86.3817058,106.542033 85.6023062,108.263207 C84.8229067,109.984381 83.31282,111.575655 81.0720461,113.037029 C78.8312723,114.498404 76.3469362,115.229091 73.6190376,115.229091 L73.6190376,115.229091 Z"></path>
                        <path transform="translate(61.578200, 84.342048) rotate(15.000000) translate(-61.578200, -84.342048)" fill="url(#linearGradient-17)" d="M51.54343,151.224952 C55.8626027,151.744552 59.2887134,151.971877 61.821762,151.906927 C62.7310616,151.906927 65.1829228,151.777027 69.1773456,151.517227 C73.1717685,151.257427 76.2406544,150.932677 78.3840033,150.542977 C80.5273521,150.153278 82.7356509,149.55249 85.0088997,148.740616 C87.2821485,147.928741 89.4579724,146.938254 91.5363713,145.769155 C93.6147702,144.600056 95.3359442,143.447194 96.6998935,142.310569 C98.0638428,141.173945 99.492742,139.533958 100.986591,137.390609 C102.48044,135.24726 103.763202,132.2758 104.834877,128.476227 C105.906551,124.676654 106.572288,121.559055 106.832088,119.123432 C107.091888,116.687808 107.221788,113.001897 107.221788,108.0657 L107.221788,108.0657 L107.221788,55.7485027 C107.221788,53.4752539 107.075651,51.1045802 106.783376,48.6364815 C106.491101,46.1683828 106.085164,44.0087964 105.565564,42.1577224 C105.045964,40.3066484 104.282802,38.2931995 103.276078,36.1173756 C102.269353,33.9415518 100.678079,31.6520655 98.5022551,29.2489168 C96.3264312,26.8457681 94.1993199,24.8972691 92.120921,23.4034199 C90.0425221,21.9095707 87.8017483,20.6430463 85.3985995,19.6038469 C82.9954508,18.5646475 80.2675523,17.8177228 77.2149039,17.3630731 C74.1622555,16.9084233 70.4601075,16.7135734 66.1084598,16.7785234 L66.1084598,16.7785234 L58.119614,16.9733733 C52.5988669,17.1682232 48.4583066,17.460498 45.6979331,17.8501978 C42.9375596,18.2398976 40.0635236,19.1167222 37.0758252,20.4806714 C34.0881268,21.8446207 31.4738907,23.5008448 29.2331169,25.4493438 C26.992343,27.3978428 25.238694,29.2813918 23.9721696,31.0999908 C22.7056453,32.9185898 21.504071,34.8346138 20.3674466,36.8480627 C19.2308222,38.8615117 18.3052852,41.2159479 17.5908355,43.9113715 C16.8763859,46.6067951 16.3243112,50.3251806 15.9346114,55.0665281 L15.9346114,55.0665281 L15.9346114,108.26055 C15.9346114,111.443098 16.1132238,114.463272 16.4704486,117.32107 C16.8276734,120.178868 17.5096481,123.475079 18.5163725,127.209702 C19.523097,130.944325 21.0494212,134.110636 23.0953451,136.708635 C25.141269,139.306633 27.1060055,141.385032 28.9895545,142.943831 C30.8731035,144.502631 33.0651648,145.882817 35.5657385,147.084392 C38.0663122,148.285966 40.274611,149.146553 42.190635,149.666153 C44.106659,150.185753 47.2242573,150.705352 51.54343,151.224952 Z M64.5496606,122.484592 L63.3805612,122.484592 C59.2887134,122.484592 56.1548776,121.948755 53.9790537,120.877081 C51.8032299,119.805406 49.9034434,118.197895 48.2796942,116.054546 C46.6559451,113.911197 45.6492206,111.329436 45.2595208,108.309262 C44.869821,105.289089 44.6749712,101.895453 44.6749712,98.1283552 L44.6749712,98.1283552 L44.5775462,63.6399235 C44.5125962,58.0542265 44.967246,54.2871285 45.9414955,52.3386295 C46.915745,50.3901306 47.8250445,48.9449938 48.669394,48.0032193 C49.5137436,47.0614448 50.9264053,46.1359078 52.9073793,45.2266083 C54.8883532,44.3173088 56.5932898,43.862659 58.0221891,43.862659 L58.0221891,43.862659 L62.3088868,43.960084 C65.2965852,44.0899839 67.8945838,44.6095836 70.1028826,45.5188831 C72.3111815,46.4281827 73.9349306,47.4349071 74.9741301,48.5390565 C76.0133295,49.6432059 76.9063915,51.9489297 77.6533161,55.4562279 C78.4002407,58.963526 78.773703,62.3084492 78.773703,65.4909975 L78.773703,65.4909975 L78.773703,98.6154799 C78.773703,99.6546794 78.5950906,102.30139 78.2378658,106.555613 C77.880641,110.809836 77.3123288,113.797534 76.5329292,115.518708 C75.7535296,117.239883 74.243443,118.831157 72.0026691,120.292531 C69.7618953,121.753905 67.2775591,122.484592 64.5496606,122.484592 L64.5496606,122.484592 Z"></path>
                    </g>
                    <g transform="translate(284.778438, 78.423208)" id="4">
                        <path fill="url(#linearGradient-14)" id="形状结合" d="M81.2882565,7.09112528 L83.4382684,44.9311771 L23.6934806,42.1388532 L81.2882565,7.09112528 Z M68.2664653,56.8463791 L68.2400102,71.3751253 L102.634161,70.9956617 L102.601159,99.5952277 L63.2826427,100.017668 L63.2820102,87.7001253 L0.0370101925,87.7672957 L0.0370101925,56.9314139 L68.2664653,56.8463791 Z M105.502762,56.0972525 L123.605415,55.978601 L123.605415,85.0006074 L105.502762,85.1192589 L105.502762,56.0972525 Z"></path>
                        <polygon points="102.636139 70.9854401 102.636139 98.2527773 105.480012 87.4905667 105.501296 56.0982824" fill="#AFB7C3" id="路径-23"></polygon>
                        <polygon points="123.609727 55.9715431 126.550283 40.9474743 126.578247 74.358017 123.601657 85.0841154" fill="#AFB7C3" id="路径-24"></polygon>
                        <path fill="url(#linearGradient-15)" d="M102.636139,70.9854401 L105.501296,56.0982824 L123.609727,55.9715431 L126.550283,40.7876726 L108.441851,40.8193574 L116.207934,0.467324645 L77.6291019,4.12114787e-13 L3.16675216,39.7860543 L0,56.8366766 L66.1351405,56.3738026 L63.2699838,71.462302 L102.636139,70.9854401 Z M69.0756961,40.8882374 L35.2208027,40.9474743 L73.2226335,19.0496199 L69.0756961,40.8882374 Z"></path>
                    </g>
                </g>
                <g fill="url(#linearGradient-18)" transform="translate(82.654738, 214.458201) rotate(32.000000) translate(-82.654738, -214.458201) translate(22.568533, 154.640134)" id="plane">
                    <polygon points="65.3484174 85.3539972 89.8723767 96.0015866 101.805339 16.2850577 18.3670703 65.4713246 40.2605243 75.8371654 93.1611095 27.5925372 50.689502 80.7368899 50.1256643 103.351077" transform="translate(60.086204, 59.818067) scale(-1, 1) rotate(129.000000) translate(-60.086204, -59.818067)" id="路径"></polygon>
                </g>
                <path transform="translate(391.172419, 94.425495) rotate(-10.000000) translate(-391.172419, -94.425495)" stroke-dasharray="4" opacity="0.300000012" stroke="#5792F0" id="路径-25" d="M120.00313,142.493193 C150.792701,93.7893428 191.703162,74.3494258 242.734514,84.173442 C276.51777,97.6972213 274.287483,114.845386 273.83635,123.356478 C267.546865,133.88588 257.857259,145.750371 234.746658,133.595022 C222.74096,121.405997 230.527422,87.7927456 247.826897,72.0312291 C253.04279,67.2328868 290.364569,21.1498558 380.274731,65.4017463 C405.553624,78.0886733 500.476951,191.594863 617.010676,110.188393 C633.390621,98.2060006 648.500965,83.2771182 662.341709,65.4017463"></path>
            </g>
            <g transform="translate(430.756242, 308.796842)" id="人物">
                <path transform="translate(42.273316, 175.234817) scale(-1, 1) rotate(-18.000000) translate(-42.273316, -175.234817)" fill-rule="nonzero" fill="url(#linearGradient-19)" id="路径-52备份-2" d="M45.3606243,170.774264 L44.6824064,175.206561 C41.9203326,175.292941 38.9166168,176.104841 35.6712589,177.642263 C33.5828826,178.982137 33.4899346,179.589235 33.4227041,180.742925 C33.3778837,181.512052 39.2783759,181.512052 51.1241805,180.742925 L51.1241805,169.149863 L45.3606243,170.774264 Z"></path>
                <path transform="translate(56.041328, 179.168534) scale(-1, 1) rotate(-8.000000) translate(-56.041328, -179.168534)" fill-rule="nonzero" fill="url(#linearGradient-19)" id="路径-52备份" d="M59.1286364,174.707982 L58.4504185,179.140279 C55.6883447,179.226658 52.6846289,180.038559 49.439271,181.575981 C47.3508947,182.915854 47.2579467,183.522952 47.1907162,184.676643 C47.1458958,185.44577 53.0463879,185.44577 64.8921926,184.676643 L64.8921926,173.08358 L59.1286364,174.707982 Z"></path>
                <path fill-rule="nonzero" fill="url(#linearGradient-20)" id="路径-63" d="M41.5082221,86.8439619 C52.3301903,89.372762 59.4215501,92.5736332 62.7823017,96.4465758 C65.6935761,99.7005756 65.1555466,104.818069 63.6748654,109.81744 C62.6877445,113.150354 55.3668112,134.466191 41.7120655,173.764949 L31.4416702,170.089518 C38.093502,142.331044 42.2032449,126.668169 43.770899,123.100896 C46.1223802,117.749985 45.2695897,106.884822 41.5082221,102.32667 C39.0006437,99.2879017 34.9895068,94.7205916 29.4748113,88.6247396 L41.5082221,86.8439619 Z"></path>
                <path fill-rule="nonzero" fill="url(#linearGradient-21)" id="路径-62" d="M18.4155996,92.6679243 C16.2093102,102.192044 17.0584827,108.902632 20.9631172,112.799687 C24.7268965,113.245387 31.7486846,113.799551 42.0284814,114.462179 C42.4226916,134.577793 42.9225688,148.556681 43.528113,156.398843 C44.1336572,164.241004 44.7985782,171.02915 45.522876,176.763279 L55.9931128,176.201985 L58.524797,116.641948 C58.4768661,107.458538 56.7044105,101.077579 53.2074303,97.4990711 C49.7104501,93.9205629 45.9042819,91.7832524 41.7889257,91.0871394 L18.4155996,92.6679243 Z"></path>
                <path fill="#FEE0BC" id="胳膊-path" d="M5.83001553,64.198719 L0.398217283,73.7839487 C0.398217283,73.7839487 -0.113846694,74.6490754 0.0233570511,75.4751131 C0.167910996,76.3395025 0.959282594,76.9786977 0.959282594,76.9786977 L19.1067217,86.0381826 L19.2190861,78.1063866 L10.3234381,73.9717742 L15.3803761,66.2662707 L5.83001553,64.198719 Z"></path>
                <path fill="#FEE0BC" id="胳膊-path" d="M72.8540444,64.198719 L78.2784924,73.7839487 C78.2784924,73.7839487 78.7881064,74.6490754 78.6509029,75.4751131 C78.5087986,76.3395025 77.7174271,76.9786977 77.7174271,76.9786977 L59.6413018,86.465827 L59.4796745,78.1063866 L68.365522,73.9717742 L63.3159343,66.2662707 L72.8540444,64.198719 Z"></path>
                <g transform="translate(22.960734, 0.000000)" id="脑袋">
                    <rect height="9.80179627" width="9.80179627" y="35.5315115" x="11.2358155" fill="url(#linearGradient-22)" id="矩形"></rect>
                    <ellipse ry="3.06306134" rx="1.8378368" cy="27.567552" cx="28.6182863" transform="translate(28.618286, 27.567552) rotate(22.000000) translate(-28.618286, -27.567552)" fill="#FEE0BC" id="椭圆形"></ellipse>
                    <ellipse ry="3.06306134" rx="1.8378368" cy="27.567552" cx="2.88857111" transform="translate(2.888571, 27.567552) scale(-1, 1) rotate(23.000000) translate(-2.888571, -27.567552)" fill="#FEE0BC" id="椭圆形备份-2"></ellipse>
                    <circle r="12.2522453" cy="25.7297152" cx="16.1367137" fill="url(#linearGradient-23)" id="椭圆形"></circle>
                    <ellipse ry="4.28828587" rx="5.5135104" cy="4.28828587" cx="15.1408164" fill="#483029" id="椭圆形"></ellipse>
                    <path fill="#483029" id="路径-51" d="M2.14626401,26.9549398 C10.6420131,22.3448246 15.2207957,18.5207412 15.8826118,15.4826898 C17.3172729,19.6050011 26.122041,25.9893459 29.6189596,25.9299013 C31.5535834,20.351063 32.0890565,15.0992498 25.9794653,9.97791948 C19.8698741,4.85658912 12.8250652,4.82781184 5.10841047,9.97791948 C-0.079755824,14.3389052 -1.06713798,19.997912 2.14626401,26.9549398 Z"></path>
                </g>
                <path fill="url(#linearGradient-24)" id="衣服" d="M34.1446183,40.6575932 C34.7990711,41.3643226 36.3651009,43.0495841 38.8427076,45.7133777 C42.2284215,42.1597462 43.9212784,40.3829305 43.9212784,40.3829305 L53.674685,42.5347896 C53.674685,42.5347896 56.3523931,42.9840526 57.9855004,44.6034662 C62.4973891,49.0771515 69.98124,57.7696282 69.98124,57.7696282 L75.2287626,63.600698 C73.9218833,65.1774191 72.4082594,66.5693432 70.7291345,67.7385429 C68.0955644,69.5471589 64.5449041,70.9370201 64.5449041,70.9370201 L60.4229014,66.9871471 L60.4229014,94.6347832 L18.4402662,94.6347832 L18.4402662,66.6097267 L16.0028654,69.6204777 C16.0028654,69.6204777 12.3933543,68.9143524 9.25464904,67.3633375 C7.16912483,66.2823633 5.21908643,64.956433 3.44559218,63.413464 L15.8165047,48.1783795 C16.5857024,47.3812421 17.3986145,46.6277737 18.2514534,45.9214848 C19.026307,45.3045747 19.8405085,44.7391259 20.6888543,44.2287523 C21.7240398,43.7809201 22.7882347,43.4038691 23.8741497,43.100182 C27.6969947,42.0427162 34.1446183,40.6575932 34.1446183,40.6575932 Z"></path>
                <path fill="#483029" id="Fill-1633" d="M60.9726249,95.4531995 L17.7017298,95.4531995 L17.7017298,69.2672934 C17.7017298,67.9449084 18.7882512,66.8732016 20.1280481,66.8732016 L58.5463067,66.8732016 C59.8864921,66.8732016 60.9726249,67.9449084 60.9726249,69.2672934 L60.9726249,95.4531995 Z"></path>
                <path fill="#483029" id="Fill-1634" d="M62.9394838,94.4092257 L15.734871,94.4092257 L15.734871,95.23907 C15.734871,95.5261625 15.9925256,95.7592081 16.3103561,95.7592081 L62.3644225,95.7592081 C62.682253,95.7592081 62.9394838,95.5261625 62.9394838,95.23907 L62.9394838,94.4092257 Z"></path>
            </g>
        </g>
    </g>
</svg>