<svg xmlns:xlink="http://www.w3.org/1999/xlink" xmlns="http://www.w3.org/2000/svg" version="1.1" viewBox="0 0 1024 1024" height="1024px" width="1024px">
    <title>暂无搜索结果</title>
    <defs>
        <linearGradient id="linearGradient-1" y2="44.0501254%" x2="50%" y1="-29.88559%" x1="50%">
            <stop offset="0%" stop-color="#CFDFFA"></stop>
            <stop offset="100%" stop-opacity="0" stop-color="#EAF0FC"></stop>
        </linearGradient>
        <linearGradient id="linearGradient-2" y2="69.8229089%" x2="53.6226986%" y1="33.7484636%" x1="50%">
            <stop offset="0%" stop-color="#CFDFFA"></stop>
            <stop offset="100%" stop-opacity="0" stop-color="#EAF0FC"></stop>
        </linearGradient>
        <linearGradient id="linearGradient-3" y2="66.4977364%" x2="53.6226986%" y1="36.47456%" x1="50%">
            <stop offset="0%" stop-color="#CFDFFA"></stop>
            <stop offset="100%" stop-opacity="0" stop-color="#EAF0FC"></stop>
        </linearGradient>
        <linearGradient id="linearGradient-4" y2="100%" x2="57.28025%" y1="11.4973736%" x1="50%">
            <stop offset="0%" stop-color="#BFD4FA"></stop>
            <stop offset="100%" stop-color="#5792F0"></stop>
        </linearGradient>
        <linearGradient id="linearGradient-5" y2="131.881015%" x2="51.9400923%" y1="11.4973736%" x1="50%">
            <stop offset="0%" stop-color="#BFD4FA"></stop>
            <stop offset="100%" stop-color="#5792F0"></stop>
        </linearGradient>
        <linearGradient id="linearGradient-6" y2="128.49897%" x2="74.2827921%" y1="13.0877007%" x1="50%">
            <stop offset="0%" stop-color="#BFD4FA"></stop>
            <stop offset="100%" stop-color="#5792F0"></stop>
        </linearGradient>
        <linearGradient id="linearGradient-7" y2="131.881015%" x2="54.0733641%" y1="11.4973736%" x1="50%">
            <stop offset="0%" stop-color="#BFD4FA"></stop>
            <stop offset="100%" stop-color="#5792F0"></stop>
        </linearGradient>
        <linearGradient id="linearGradient-8" y2="131.881015%" x2="51.9795749%" y1="11.4973736%" x1="50%">
            <stop offset="0%" stop-color="#BFD4FA"></stop>
            <stop offset="100%" stop-color="#5792F0"></stop>
        </linearGradient>
        <linearGradient id="linearGradient-9" y2="131.881015%" x2="55.3643684%" y1="11.4973736%" x1="50%">
            <stop offset="0%" stop-color="#BFD4FA"></stop>
            <stop offset="100%" stop-color="#5792F0"></stop>
        </linearGradient>
        <linearGradient id="linearGradient-10" y2="53.7022797%" x2="74.2827921%" y1="48.2590898%" x1="50%">
            <stop offset="0%" stop-color="#BFD4FA"></stop>
            <stop offset="100%" stop-color="#5792F0"></stop>
        </linearGradient>
        <linearGradient id="linearGradient-11" y2="93.8707843%" x2="51.9965305%" y1="-91.6326561%" x1="54.6593842%">
            <stop offset="0%" stop-color="#5792F0"></stop>
            <stop offset="100%" stop-opacity="0" stop-color="#BFD4FA"></stop>
        </linearGradient>
        <linearGradient id="linearGradient-12" y2="-11.5290622%" x2="8.73579937%" y1="58.9183998%" x1="90.669778%">
            <stop offset="0%" stop-color="#5792F0"></stop>
            <stop offset="100%" stop-color="#BFD4FA"></stop>
        </linearGradient>
        <linearGradient id="linearGradient-13" y2="3.81708402%" x2="24.9251872%" y1="250.831247%" x1="174.020218%">
            <stop offset="0%" stop-color="#5792F0"></stop>
            <stop offset="100%" stop-color="#BFD4FA"></stop>
        </linearGradient>
        <linearGradient id="linearGradient-14" y2="43.1298194%" x2="133.934769%" y1="-9.74971215%" x1="272.812234%">
            <stop offset="0%" stop-color="#5792F0"></stop>
            <stop offset="100%" stop-color="#BFD4FA"></stop>
        </linearGradient>
        <linearGradient id="linearGradient-15" y2="49.653899%" x2="-17.9385803%" y1="50.7767422%" x1="219.196164%">
            <stop offset="0%" stop-color="#5792F0"></stop>
            <stop offset="100%" stop-color="#BFD4FA"></stop>
        </linearGradient>
        <linearGradient id="linearGradient-16" y2="48.6155961%" x2="-17.9385803%" y1="53.1069689%" x1="219.196164%">
            <stop offset="0%" stop-color="#5792F0"></stop>
            <stop offset="100%" stop-color="#BFD4FA"></stop>
        </linearGradient>
        <linearGradient id="linearGradient-17" y2="-11.5290622%" x2="-17.9385803%" y1="188.087506%" x1="219.196164%">
            <stop offset="0%" stop-color="#5792F0"></stop>
            <stop offset="100%" stop-color="#BFD4FA"></stop>
        </linearGradient>
        <linearGradient id="linearGradient-18" y2="42.6274349%" x2="-17.9385803%" y1="61.2841142%" x1="116.263747%">
            <stop offset="0%" stop-color="#5792F0"></stop>
            <stop offset="100%" stop-color="#BFD4FA"></stop>
        </linearGradient>
        <linearGradient id="linearGradient-19" y2="49.0386084%" x2="-17.9385803%" y1="51.4714624%" x1="116.263747%">
            <stop offset="0%" stop-color="#5792F0"></stop>
            <stop offset="100%" stop-color="#BFD4FA"></stop>
        </linearGradient>
        <linearGradient id="linearGradient-20" y2="-11.5290622%" x2="-17.9385803%" y1="58.9183998%" x1="116.959906%">
            <stop offset="0%" stop-color="#5792F0"></stop>
            <stop offset="100%" stop-color="#BFD4FA"></stop>
        </linearGradient>
        <linearGradient id="linearGradient-21" y2="4.38351894%" x2="6.39235388%" y1="248.368045%" x1="265.683755%">
            <stop offset="0%" stop-color="#5792F0"></stop>
            <stop offset="100%" stop-color="#BFD4FA"></stop>
        </linearGradient>
        <linearGradient id="linearGradient-22" y2="-11.5290622%" x2="-17.9385803%" y1="58.9183998%" x1="116.959906%">
            <stop offset="0%" stop-color="#5792F0"></stop>
            <stop offset="100%" stop-color="#BFD4FA"></stop>
        </linearGradient>
        <linearGradient id="linearGradient-23" y2="73.6326896%" x2="100%" y1="11.7098971%" x1="14.3474826%">
            <stop offset="0%" stop-color="#BFD4FA"></stop>
            <stop offset="100%" stop-color="#5792F0"></stop>
        </linearGradient>
        <linearGradient id="linearGradient-24" y2="-24.285207%" x2="68.3293688%" y1="121.736838%" x1="26.3096272%">
            <stop offset="0%" stop-color="#5792F0"></stop>
            <stop offset="100%" stop-color="#BFD4FA"></stop>
        </linearGradient>
        <linearGradient id="linearGradient-25" y2="44.1197864%" x2="48.2269264%" y1="-31.4050544%" x1="24.9110731%">
            <stop offset="0%" stop-color="#BFD4FA"></stop>
            <stop offset="100%" stop-color="#5792F0"></stop>
        </linearGradient>
        <linearGradient id="linearGradient-26" y2="100%" x2="50%" y1="-19.0038784%" x1="50%">
            <stop offset="0%" stop-color="#FFCDA5"></stop>
            <stop offset="100%" stop-color="#FFE8D1"></stop>
        </linearGradient>
        <linearGradient id="linearGradient-27" y2="100%" x2="50%" y1="0%" x1="50%">
            <stop offset="0%" stop-color="#FFF2DF"></stop>
            <stop offset="100%" stop-color="#FEE0BC"></stop>
        </linearGradient>
        <linearGradient id="linearGradient-28" y2="100%" x2="50%" y1="0%" x1="50%">
            <stop offset="0%" stop-color="#FEE127"></stop>
            <stop offset="100%" stop-color="#F9AB21"></stop>
        </linearGradient>
    </defs>
    <g fill-rule="evenodd" fill="none" stroke-width="1" stroke="none" id="暂无搜索结果">
        <rect height="1024" width="1024" y="0" x="0" id="矩形"></rect>
        <g transform="translate(32.000000, 149.000000)" id="编组-3">
            <g id="背景">
                <ellipse ry="250" rx="480" cy="766" cx="480" fill="url(#linearGradient-1)" id="椭圆形"></ellipse>
                <path fill="url(#linearGradient-2)" id="云" d="M814,116.212121 C814,130.606061 800.181818,142.121212 782.727273,142.121212 L686,142.121212 C668.545455,140.969697 654,130.030303 654,115.060606 C654,105.272727 660.545455,96.6363636 670,92.030303 C669.272727,90.3030303 668.545455,88.5757576 668.545455,86.8484848 C668.545455,77.0606061 678,68.4242424 690.363636,68.4242424 C695.454545,68.4242424 699.818182,70.1515152 703.454545,72.4545455 C712.181818,59.2121212 728.181818,50 747.090909,50 C773.272727,50 794.363636,67.8484848 794.363636,89.7272727 L794.363636,92.030303 C806,96.0606061 814,105.272727 814,116.212121 Z"></path>
                <path fill="url(#linearGradient-3)" id="云" d="M166.222222,0 C190.894883,0 211.8847,15.7681262 219.664106,37.7768098 L256.5,37.7777778 C266.164983,37.7777778 274,45.6127947 274,55.2777778 L274,98.0555556 C274,107.720539 266.164983,115.555556 256.5,115.555556 L78.1666667,115.555556 C68.5016835,115.555556 60.6666667,107.720539 60.6666667,98.0555556 L60.6669111,85.6467185 C56.4406838,78.8453656 54,70.81882 54,62.2222222 C54,37.6762333 73.8984556,17.7777778 98.4444444,17.7777778 C106.377692,17.7777778 113.825468,19.8563268 120.272891,23.4985432 C130.565544,9.26259942 147.312185,0 166.222222,0 Z"></path>
                <g transform="translate(170.000000, 570.000000)" id="草">
                    <ellipse ry="4" rx="12.8" cy="78" cx="26.8" fill="#CCDCF6" id="椭圆形"></ellipse>
                    <path fill-rule="nonzero" fill="url(#linearGradient-4)" id="路径-42" d="M13.2096985,76.4334696 C14.9527214,47.3262499 22.2548023,30.479152 35.1159413,25.892176 C40.1793835,25.2161532 45.8226773,24.1997042 41.8878028,30.7617951 C37.9529282,37.3238861 27.4160559,34.7701422 16.879533,76.4161198 C15.9265298,78.1966928 14.7032516,78.202476 13.2096985,76.4334696 Z"></path>
                    <path fill-rule="nonzero" fill="url(#linearGradient-5)" id="路径-41" d="M12.9692534,76.0688036 C9.54744327,48.8820916 6.74680699,31.7849012 4.56734456,24.7772324 C1.2981509,14.2657291 -5.66257226,-5.963969 8.82439601,1.68943966 C23.3113643,9.34284832 25.0241679,48.6011298 18.327685,72.4929976 C16.2462776,78.5387167 14.4601337,79.730652 12.9692534,76.0688036 Z"></path>
                </g>
                <g fill-rule="nonzero" transform="translate(686.120225, 515.426704)" id="草">
                    <path fill="url(#linearGradient-6)" id="路径-43" d="M65.8576891,95.4430222 C63.3395468,83.9806553 55.9856639,75.9680543 43.7960405,71.4052192 C29.8759357,66.9305791 22.2494886,61.6117041 30.9599814,57.7550267 C38.3155159,57.1703291 54.0022982,51.4419217 65.8576891,85.6583003 C66.6827635,88.9740418 66.6827635,92.2356158 65.8576891,95.4430222 Z"></path>
                    <path fill="url(#linearGradient-7)" id="路径-44" d="M66.4764949,97.2611071 C59.1454779,69.8960192 50.8174439,49.9170768 41.4923928,37.3242799 C34.6452589,28.7188412 35.1250476,16.405104 41.4923928,13.6218727 C48.0100381,12.8970718 60.0222617,11.7760378 69.0669112,58.9373338 C69.6381527,62.1812743 72.8251647,81.1589956 69.0669112,93.4066801 C68.5106318,95.0875751 67.6471596,96.3723841 66.4764949,97.2611071 Z"></path>
                    <path fill="url(#linearGradient-8)" id="路径-45" d="M68.1696321,91.0804085 C71.4853494,78.835463 71.0643832,62.8586309 66.9067333,43.1499123 C60.5471905,24.0440706 49.6921744,0.541796566 69.4774519,0 C77.5044316,1.09154868 87.1972186,9.50543486 83.5347739,51.4392686 C81.3029234,68.3604083 77.4213217,78.3565362 73.3477064,91.0804085 C71.9266832,91.8737887 70.2006584,91.8737887 68.1696321,91.0804085 Z"></path>
                    <path fill="url(#linearGradient-9)" id="路径-46" d="M72.0427224,95.836031 C70.7154818,61.2121058 77.0522244,36.363996 91.0529503,21.2917016 C94.833726,16.2551414 109.217459,11.5380494 109.163159,27.3263959 C107.661554,34.1152854 104.448437,48.6087163 85.9202741,70.7214245 C79.8162941,78.7025415 75.8046094,90.365172 75.7655073,93.0996265 C75.7394392,94.9225962 74.4985109,95.834731 72.0427224,95.836031 Z"></path>
                    <path fill="url(#linearGradient-10)" id="路径-47" d="M0,100.407711 C13.8643816,97.8236334 21.5103995,95.6299697 22.9380537,93.8267198 C25.0795349,91.1218449 43.9450099,79.5080271 55.7094426,89.2905093 C58.2703723,85.9992821 66.4835238,83.4391237 71.1837342,89.2905093 C73.3341085,80.0524096 86.7490663,74.1360276 92.583369,75.0945046 C99.1537088,74.5803177 118.55034,74.7942504 120,100.407711 C114.707841,100.530921 74.7078414,100.530921 0,100.407711 Z"></path>
                </g>
            </g>
            <polygon points="410.146291 419.790462 613.881826 646.549726 663.555369 880.921895 382.723957 787.576815" transform="translate(523.139663, 650.356178) rotate(-50.000000) translate(-523.139663, -650.356178)" opacity="0.3" fill-rule="nonzero" fill="url(#linearGradient-11)" id="路径"></polygon>
            <g transform="translate(186.000000, 126.000000)" id="暂无记录">
                <path fill-rule="nonzero" fill="url(#linearGradient-12)" id="路径" d="M371.964355,458 L112.035645,458 C92.1306556,458 76,441.930457 76,422.10088 L76,67.8991199 C76,48.0695427 92.1306556,32 112.035645,32 L371.964355,32 C391.869344,32 408,48.0695427 408,67.8991199 L408,422.10088 C408,441.930457 391.869344,458 371.964355,458 Z"></path>
                <path fill-rule="nonzero" fill="url(#linearGradient-13)" id="路径" d="M356.094019,468 L107.905981,468 C88.072614,468 72,451.865474 72,431.955708 L72,82.044292 C72,62.1345261 88.072614,46 107.905981,46 L356.094019,46 C375.927386,46 392,62.1345261 392,82.044292 L392,431.966588 C392,451.865474 375.927386,468 356.094019,468 Z"></path>
                <path fill-rule="nonzero" fill="#FAFAFA" id="路径" d="M352.9228,424 L115.0772,424 C112.272237,424 110,421.732908 110,418.934296 L110,79.0657038 C110,76.2670923 112.272237,74 115.0772,74 L352.9228,74 C355.727763,74 358,76.2670923 358,79.0657038 L358,418.934296 C357.989128,421.732908 355.716891,424 352.9228,424 Z"></path>
                <path fill-rule="nonzero" fill="#FFFFFF" id="路径" d="M221.465136,421.997807 C199.311938,420.494292 77.4639275,411.251106 2.01510159,350.163333 C-1.7150502,347.136706 0.0307475874,340.920146 4.81271543,340.48466 C121.911289,329.880581 107.652133,120.30303 108.476236,80.1185758 C108.541297,76.7108992 110.70999,74 114.103994,74 L350.545737,74 C353.56022,74 356,76.4496077 356,79.4762342 L343.616764,304.535306 C343.161338,305.77644 342.293861,308.1825 341.437227,309.184117 L250.389029,411.010399 C249.272152,412.316857 223.178403,422.116477 221.465136,421.997807 Z"></path>
                <path fill-rule="nonzero" fill="url(#linearGradient-14)" id="路径" d="M255.13159,343.913514 C268.719801,344.767568 309.203819,345.081081 344,306 C335.754255,347.113514 282.804483,421.491892 214,422 C253.534247,401.610811 252.023246,363.859459 250.771274,346.92973 C250.630967,344.940541 253.156496,343.783784 255.13159,343.913514 Z"></path>
                <g transform="translate(121.656384, 126.000000)" id="编组-2">
                    <rect rx="3" height="12" width="160" y="0" x="40.3436159" fill-rule="nonzero" fill="url(#linearGradient-15)" id="矩形"></rect>
                    <rect rx="3" height="12" width="160" y="40" x="36.3436159" fill-rule="nonzero" fill="url(#linearGradient-15)" id="矩形备份"></rect>
                    <rect rx="3" height="12" width="80" y="80" x="32.3436159" fill-rule="nonzero" fill="url(#linearGradient-16)" id="矩形备份-2"></rect>
                    <rect rx="3" height="12" width="12" y="80" x="124.343616" fill-rule="nonzero" fill="url(#linearGradient-17)" id="矩形备份-3"></rect>
                    <path transform="translate(106.343616, 126.000000) rotate(2.000000) translate(-106.343616, -126.000000)" fill-rule="nonzero" fill="url(#linearGradient-15)" id="矩形备份-7" d="M29.3436159,120 L183.343616,120 C185.00047,120 186.343616,121.343146 186.343616,123 L186.343616,129 C186.343616,130.656854 185.00047,132 183.343616,132 L29.3436159,132 C27.6867617,132 26.3436159,130.656854 26.3436159,129 L26.3436159,123 C26.3436159,121.343146 27.6867617,120 29.3436159,120 Z"></path>
                    <path transform="translate(94.343616, 166.000000) rotate(4.000000) translate(-94.343616, -166.000000)" fill-rule="nonzero" fill="url(#linearGradient-15)" id="矩形备份-6" d="M17.3436159,160 L171.343616,160 C173.00047,160 174.343616,161.343146 174.343616,163 L174.343616,169 C174.343616,170.656854 173.00047,172 171.343616,172 L17.3436159,172 C15.6867617,172 14.3436159,170.656854 14.3436159,169 L14.3436159,163 C14.3436159,161.343146 15.6867617,160 17.3436159,160 Z"></path>
                    <path transform="translate(40.433062, 204.537568) rotate(7.000000) translate(-40.433062, -204.537568)" fill-rule="nonzero" fill="url(#linearGradient-16)" id="矩形备份-5" d="M3.43306213,198.537568 L77.4330621,198.537568 C79.0899164,198.537568 80.4330621,199.880714 80.4330621,201.537568 L80.4330621,207.537568 C80.4330621,209.194422 79.0899164,210.537568 77.4330621,210.537568 L3.43306213,210.537568 C1.77620788,210.537568 0.433062126,209.194422 0.433062126,207.537568 L0.433062126,201.537568 C0.433062126,199.880714 1.77620788,198.537568 3.43306213,198.537568 Z"></path>
                    <path transform="translate(98.000739, 211.605990) rotate(7.000000) translate(-98.000739, -211.605990)" fill="#D8D8D8" id="矩形备份-4" d="M95.0007389,205.60599 L101.000739,205.60599 C102.657593,205.60599 104.000739,206.949136 104.000739,208.60599 L104.000739,214.60599 C104.000739,216.262844 102.657593,217.60599 101.000739,217.60599 L95.0007389,217.60599 C93.3438847,217.60599 92.0007389,216.262844 92.0007389,214.60599 L92.0007389,208.60599 C92.0007389,206.949136 93.3438847,205.60599 95.0007389,205.60599 Z"></path>
                </g>
                <g fill-rule="nonzero" transform="translate(184.000000, 0.000000)" id="编组">
                    <rect height="36" width="104" y="46" x="2" fill="url(#linearGradient-18)" id="矩形"></rect>
                    <polygon points="8 32 112 32 104 46 0 46" fill="url(#linearGradient-19)" id="矩形"></polygon>
                    <path fill="url(#linearGradient-20)" id="形状结合" d="M56,0 C65.9411255,0 74,8.0588745 74,18 C74,27.9411255 65.9411255,36 56,36 C46.0588745,36 38,27.9411255 38,18 C38,8.0588745 46.0588745,0 56,0 Z M56,8 C50.4771525,8 46,12.4771525 46,18 C46,23.5228475 50.4771525,28 56,28 C61.5228475,28 66,23.5228475 66,18 C66,12.4771525 61.5228475,8 56,8 Z"></path>
                </g>
            </g>
            <g fill-rule="nonzero" transform="translate(395.853211, 374.394495)" id="放大镜">
                <path transform="translate(134.199741, 136.687821) scale(-1, 1) translate(-134.199741, -136.687821)" fill="url(#linearGradient-21)" id="形状结合" d="M235.209749,36.4460547 C279.462725,80.6227196 279.462725,152.247196 235.209749,196.423861 C195.439912,236.125008 133.463615,240.147064 89.1943792,208.490029 L33.2166814,264.369424 C25.6134043,271.95958 13.2999681,271.95958 5.69669096,264.369424 C-1.88962944,256.796197 -1.90024301,244.506955 5.67298467,236.920634 L5.69669096,236.896928 L61.8798665,180.809568 C31.2452621,136.717951 35.6037644,75.7298042 74.9553734,36.4460547 C119.208411,-7.7305493 190.956711,-7.7305493 235.209749,36.4460547 Z M102.928394,63.4756309 C74.3453923,92.0586327 74.373489,138.428932 102.99115,167.046593 C131.608811,195.664253 177.97911,195.69235 206.562111,167.109348 C235.145113,138.526346 235.117017,92.1560473 206.499356,63.5383865 C177.881695,34.9207257 131.511396,34.892629 102.928394,63.4756309 Z"></path>
                <path transform="translate(144.970418, 135.029582) scale(-1, 1) translate(-144.970418, -135.029582)" fill="url(#linearGradient-22)" id="形状结合" d="M247.140946,32.8590545 C290.953018,76.6711272 290.953018,147.704532 247.140946,191.516604 C208.006189,230.651361 147.152071,234.829334 103.379858,204.050523 L43.0486954,264.378754 C35.4748144,271.952635 23.1951271,271.952635 15.6212461,264.378754 C8.04736505,256.804872 8.04736505,244.525186 15.6212461,236.951305 L75.949863,176.620691 C45.1706316,132.848436 49.3484756,71.9939742 88.4833952,32.8590545 C132.295468,-10.9530182 203.328873,-10.9530182 247.140946,32.8590545 Z M115.606351,61.2597817 C87.0233493,89.8427835 87.051446,136.213082 115.669107,164.830743 C144.286768,193.448404 190.657067,193.476501 219.240068,164.893499 C247.82307,136.310497 247.794974,89.9401981 219.177313,61.3225373 C190.559652,32.7048765 144.189353,32.6767798 115.606351,61.2597817 Z"></path>
            </g>
            <g transform="translate(478.014389, 446.000000)" id="人物">
                <path transform="translate(42.985611, 178.187484) scale(-1, 1) rotate(-18.000000) translate(-42.985611, -178.187484)" fill-rule="nonzero" fill="url(#linearGradient-23)" id="路径-52备份-2" d="M46.1249407,173.651772 L45.4352949,178.158752 C42.6266808,178.246587 39.572353,179.072168 36.2723117,180.635496 C34.1487466,181.997946 34.0542325,182.615273 33.9858692,183.788403 C33.9402936,184.570489 39.9402077,184.570489 51.9856115,183.788403 L51.9856115,172 L46.1249407,173.651772 Z"></path>
                <path transform="translate(56.985611, 182.187484) scale(-1, 1) rotate(-8.000000) translate(-56.985611, -182.187484)" fill-rule="nonzero" fill="url(#linearGradient-23)" id="路径-52备份" d="M60.1249407,177.651772 L59.4352949,182.158752 C56.6266808,182.246587 53.572353,183.072168 50.2723117,184.635496 C48.1487466,185.997946 48.0542325,186.615273 47.9858692,187.788403 C47.9402936,188.570489 53.9402077,188.570489 65.9856115,187.788403 L65.9856115,176 L60.1249407,177.651772 Z"></path>
                <path fill-rule="nonzero" fill="url(#linearGradient-24)" id="路径-63" d="M42.2076263,88.3072632 C53.2119423,90.878673 60.4227899,94.1334782 63.8401694,98.0716789 C66.8004982,101.380508 66.253403,106.58423 64.7477726,111.667839 C63.744019,115.056912 56.2997296,136.731916 42.4149044,176.69285 L31.9714553,172.955488 C38.7353689,144.72929 42.9143601,128.8025 44.5084289,125.175118 C46.8995319,119.734046 46.0323722,108.685808 42.2076263,104.050851 C39.6577958,100.960881 35.5790721,96.3166123 29.9714553,90.1180466 L42.2076263,88.3072632 Z"></path>
                <path fill-rule="nonzero" fill="url(#linearGradient-25)" id="路径-62" d="M18.7258983,94.2293581 C16.4824334,103.913957 17.3459143,110.737616 21.316341,114.700337 C25.1435392,115.153546 32.2836428,115.717048 42.7366519,116.390841 C43.1375045,136.845399 43.6458045,151.059828 44.261552,159.034128 C44.8772995,167.008428 45.5534242,173.910952 46.2899262,179.741701 L56.9365842,179.170949 L59.5109267,118.607339 C59.4621882,109.269191 57.6598671,102.780714 54.1039636,99.1419086 C50.54806,95.5031034 46.6777587,93.3297796 42.4930597,92.6219372 L18.7258983,94.2293581 Z"></path>
                <path fill="#FEE0BC" id="胳膊-path" d="M5.92824999,65.280453 L0.404927155,75.0271917 C0.404927155,75.0271917 -0.115764985,75.9068956 0.0237506122,76.7468518 C0.170740259,77.625806 0.975446291,78.2757715 0.975446291,78.2757715 L19.4286657,87.4879067 L19.5429234,79.4224617 L10.4973858,75.218182 L15.639532,67.3828425 L5.92824999,65.280453 Z"></path>
                <path fill="#FEE0BC" id="胳膊-path" d="M74.0816187,65.280453 L79.5974674,75.0271917 C79.5974674,75.0271917 80.1156683,75.9068956 79.976153,76.7468518 C79.8316543,77.625806 79.0269483,78.2757715 79.0269483,78.2757715 L60.6462443,87.9227568 L60.4818937,79.4224617 L69.5174657,75.218182 L64.3827936,67.3828425 L74.0816187,65.280453 Z"></path>
                <g transform="translate(23.347618, 0.000000)" id="脑袋">
                    <rect height="9.96695434" width="9.96695434" y="36.1302095" x="11.4251365" fill="url(#linearGradient-26)" id="矩形"></rect>
                    <ellipse ry="3.11467323" rx="1.86880394" cy="28.0320591" cx="29.100498" transform="translate(29.100498, 28.032059) rotate(22.000000) translate(-29.100498, -28.032059)" fill="#FEE0BC" id="椭圆形"></ellipse>
                    <ellipse ry="3.11467323" rx="1.86880394" cy="28.0320591" cx="2.93724288" transform="translate(2.937243, 28.032059) scale(-1, 1) rotate(23.000000) translate(-2.937243, -28.032059)" fill="#FEE0BC" id="椭圆形备份-2"></ellipse>
                    <circle r="12.4586929" cy="26.1632551" cx="16.4086137" fill="url(#linearGradient-27)" id="椭圆形"></circle>
                    <ellipse ry="4.36054252" rx="5.60641182" cy="4.36054252" cx="15.3959358" fill="#483029" id="椭圆形"></ellipse>
                    <path fill="#483029" id="路径-51" d="M2.18242808,27.4091244 C10.8213287,22.7213298 15.4772627,18.8328116 16.1502302,15.7435696 C17.609065,19.935341 26.5621916,26.4272605 30.1180324,26.3668144 C32.0852542,20.6939739 32.6297499,15.3536688 26.4172134,10.1460452 C20.204677,4.93842156 13.0411647,4.90915938 5.19448604,10.1460452 C-0.0810996917,14.5805126 -1.08511901,20.3348723 2.18242808,27.4091244 Z"></path>
                </g>
                <path fill="url(#linearGradient-28)" id="衣服" d="M34.7199475,41.3426645 C35.3854276,42.0613022 36.9778447,43.7749599 39.4971986,46.4836378 C42.9399609,42.8701285 44.6613421,41.0633738 44.6613421,41.0633738 L54.5790914,43.2514913 C54.5790914,43.2514913 57.3019182,43.7083243 58.9625431,45.3550246 C63.550456,49.9040905 71.1604082,58.7430335 71.1604082,58.7430335 L76.4963504,64.6723555 C75.1674505,66.275644 73.6283223,67.6910217 71.9209045,68.8799222 C69.2429594,70.719013 65.6324712,72.132293 65.6324712,72.132293 L61.4410137,68.1158655 L61.4410137,96.2293581 L18.7509806,96.2293581 L18.7509806,67.7320857 L16.2725101,70.7935671 C16.2725101,70.7935671 12.6021796,70.0755438 9.4105878,68.4983946 C7.28992298,67.3992063 5.30702686,66.0509344 3.50364964,64.4819667 L16.0830093,48.9901744 C16.8651678,48.1796054 17.6917773,47.4134412 18.5589863,46.6952515 C19.346896,46.0679466 20.1748166,45.4929701 21.0374568,44.9739969 C22.090085,44.5186188 23.1722113,44.1352146 24.2764238,43.8264104 C28.1636828,42.7511266 34.7199475,41.3426645 34.7199475,41.3426645 Z"></path>
                <path fill="#483029" id="Fill-1633" d="M62,97.0615645 L18,97.0615645 L18,70.4344318 C18,69.0897648 19.104829,68 20.4672011,68 L59.5327989,68 C60.8955661,68 62,69.0897648 62,70.4344318 L62,97.0615645 Z"></path>
                <path fill="#483029" id="Fill-1634" d="M64,96 L16,96 L16,96.843827 C16,97.1357569 16.2619961,97.3727293 16.5851819,97.3727293 L63.415249,97.3727293 C63.7384349,97.3727293 64,97.1357569 64,96.843827 L64,96 Z"></path>
            </g>
        </g>
    </g>
</svg>